SourceSerifMaster-Black.ufo
<glyph name="quotedbl" format="2">
  <advance width="484"/>
  <unicode hex="0022"/>
  <outline>
    <contour>
      <point x="128" y="726" type="curve" smooth="yes"/>
      <point x="73" y="726"/>
      <point x="40" y="695"/>
      <point x="40" y="635" type="curve" smooth="yes"/>
      <point x="40" y="585"/>
      <point x="60" y="524"/>
      <point x="66" y="500" type="curve" smooth="yes"/>
      <point x="98" y="381" type="line"/>
      <point x="159" y="381" type="line"/>
      <point x="191" y="500" type="line" smooth="yes"/>
      <point x="198" y="526"/>
      <point x="217" y="585"/>
      <point x="217" y="635" type="curve" smooth="yes"/>
      <point x="217" y="695"/>
      <point x="183" y="726"/>
    </contour>
    <contour>
      <point x="355" y="726" type="curve" smooth="yes"/>
      <point x="300" y="726"/>
      <point x="267" y="695"/>
      <point x="267" y="635" type="curve" smooth="yes"/>
      <point x="267" y="585"/>
      <point x="287" y="524"/>
      <point x="293" y="500" type="curve" smooth="yes"/>
      <point x="325" y="381" type="line"/>
      <point x="386" y="381" type="line"/>
      <point x="418" y="500" type="line" smooth="yes"/>
      <point x="425" y="526"/>
      <point x="444" y="585"/>
      <point x="444" y="635" type="curve" smooth="yes"/>
      <point x="444" y="695"/>
      <point x="410" y="726"/>
    </contour>
  </outline>
</glyph>
<glyph name="parenright" format="2">
  <advance width="393"/>
  <unicode hex="0029"/>
  <outline>
    <contour>
      <point x="188" y="278" type="curve" smooth="yes"/>
      <point x="188" y="123"/>
      <point x="139" y="15"/>
      <point x="30" y="-110" type="curve"/>
      <point x="85" y="-158" type="line"/>
      <point x="237" y="-47"/>
      <point x="323" y="100"/>
      <point x="323" y="278" type="curve" smooth="yes"/>
      <point x="323" y="456"/>
      <point x="237" y="603"/>
      <point x="85" y="714" type="curve"/>
      <point x="30" y="666" type="line"/>
      <point x="139" y="541"/>
      <point x="188" y="433"/>
    </contour>
  </outline>
</glyph>
<glyph name="four" format="2">
  <advance width="560"/>
  <unicode hex="0034"/>
  <outline>
    <contour>
      <point x="527" y="109" type="line"/>
      <point x="527" y="239" type="line"/>
      <point x="68" y="239" type="line"/>
      <point x="88" y="204" type="line"/>
      <point x="312" y="536" type="line"/>
      <point x="275" y="536" type="line"/>
      <point x="275" y="0" type="line"/>
      <point x="440" y="0" type="line"/>
      <point x="440" y="635" type="line"/>
      <point x="308" y="635" type="line"/>
      <point x="20" y="216" type="line"/>
      <point x="20" y="109" type="line"/>
    </contour>
  </outline>
</glyph>
<glyph name="six" format="2">
  <advance width="560"/>
  <unicode hex="0036"/>
  <outline>
    <contour>
      <point x="277" y="39" type="curve" smooth="yes"/>
      <point x="238" y="39"/>
      <point x="216" y="100"/>
      <point x="216" y="222" type="curve" smooth="yes"/>
      <point x="216" y="430"/>
      <point x="300" y="536"/>
      <point x="484" y="583" type="curve"/>
      <point x="478" y="640" type="line"/>
      <point x="216" y="620"/>
      <point x="24" y="459"/>
      <point x="24" y="252" type="curve" smooth="yes"/>
      <point x="24" y="79"/>
      <point x="129" y="-16"/>
      <point x="281" y="-16" type="curve" smooth="yes"/>
      <point x="404" y="-16"/>
      <point x="533" y="55"/>
      <point x="533" y="211" type="curve" smooth="yes"/>
      <point x="533" y="312"/>
      <point x="479" y="392"/>
      <point x="357" y="392" type="curve" smooth="yes"/>
      <point x="275" y="392"/>
      <point x="216" y="362"/>
      <point x="165" y="285" type="curve"/>
      <point x="185" y="269" type="line"/>
      <point x="220" y="309"/>
      <point x="250" y="320"/>
      <point x="279" y="320" type="curve" smooth="yes"/>
      <point x="323" y="320"/>
      <point x="345" y="270"/>
      <point x="345" y="191" type="curve" smooth="yes"/>
      <point x="345" y="86"/>
      <point x="313" y="39"/>
    </contour>
  </outline>
</glyph>
<glyph name="colon" format="2">
  <advance width="300"/>
  <unicode hex="003A"/>
  <outline>
    <contour>
      <point x="150" y="314" type="curve" smooth="yes"/>
      <point x="205" y="314"/>
      <point x="248" y="357"/>
      <point x="248" y="410" type="curve" smooth="yes"/>
      <point x="248" y="464"/>
      <point x="205" y="509"/>
      <point x="150" y="509" type="curve" smooth="yes"/>
      <point x="95" y="509"/>
      <point x="52" y="464"/>
      <point x="52" y="410" type="curve" smooth="yes"/>
      <point x="52" y="357"/>
      <point x="95" y="314"/>
    </contour>
    <contour>
      <point x="150" y="-16" type="curve" smooth="yes"/>
      <point x="205" y="-16"/>
      <point x="248" y="27"/>
      <point x="248" y="80" type="curve" smooth="yes"/>
      <point x="248" y="134"/>
      <point x="205" y="179"/>
      <point x="150" y="179" type="curve" smooth="yes"/>
      <point x="95" y="179"/>
      <point x="52" y="134"/>
      <point x="52" y="80" type="curve" smooth="yes"/>
      <point x="52" y="27"/>
      <point x="95" y="-16"/>
    </contour>
  </outline>
</glyph>
<glyph name="semicolon" format="2">
  <advance width="300"/>
  <unicode hex="003B"/>
  <outline>
    <contour>
      <point x="150" y="314" type="curve" smooth="yes"/>
      <point x="205" y="314"/>
      <point x="248" y="357"/>
      <point x="248" y="410" type="curve" smooth="yes"/>
      <point x="248" y="464"/>
      <point x="205" y="509"/>
      <point x="150" y="509" type="curve" smooth="yes"/>
      <point x="95" y="509"/>
      <point x="52" y="464"/>
      <point x="52" y="410" type="curve" smooth="yes"/>
      <point x="52" y="357"/>
      <point x="95" y="314"/>
    </contour>
    <contour>
      <point x="248" y="67" type="curve" smooth="yes"/>
      <point x="248" y="99"/>
      <point x="245" y="119"/>
      <point x="232" y="151" type="curve"/>
      <point x="208" y="172"/>
      <point x="184" y="179"/>
      <point x="152" y="179" type="curve" smooth="yes"/>
      <point x="96" y="179"/>
      <point x="52" y="137"/>
      <point x="52" y="82" type="curve" smooth="yes"/>
      <point x="52" y="51"/>
      <point x="68" y="17"/>
      <point x="116" y="-6" type="curve" smooth="yes"/>
      <point x="192" y="-42" type="line"/>
      <point x="157" y="-9" type="line"/>
      <point x="133" y="-56"/>
      <point x="95" y="-108"/>
      <point x="23" y="-147" type="curve"/>
      <point x="37" y="-193" type="line"/>
      <point x="132" y="-166"/>
      <point x="248" y="-77"/>
    </contour>
  </outline>
</glyph>
<glyph name="greater" format="2">
  <advance width="550"/>
  <unicode hex="003E"/>
  <outline>
    <contour>
      <point x="520" y="364" type="line"/>
      <point x="89" y="577" type="line"/>
      <point x="40" y="477" type="line"/>
      <point x="465" y="281" type="line"/>
      <point x="465" y="361" type="line"/>
      <point x="40" y="165" type="line"/>
      <point x="89" y="65" type="line"/>
      <point x="520" y="278" type="line"/>
    </contour>
  </outline>
</glyph>
<glyph name="N" format="2">
  <advance width="725"/>
  <unicode hex="004E"/>
  <anchor x="358" y="682" name="aboveUC"/>
  <anchor x="381" y="-22" name="belowLC"/>
  <outline>
    <contour>
      <point x="24" y="0" type="line"/>
      <point x="297" y="0" type="line"/>
      <point x="297" y="59" type="line"/>
      <point x="163" y="74" type="line"/>
      <point x="131" y="74" type="line"/>
      <point x="24" y="59" type="line"/>
    </contour>
    <contour>
      <point x="109" y="0" type="line"/>
      <point x="179" y="0" type="line"/>
      <point x="179" y="624" type="line"/>
      <point x="109" y="624" type="line"/>
    </contour>
    <contour>
      <point x="428" y="593" type="line"/>
      <point x="568" y="578" type="line"/>
      <point x="599" y="578" type="line"/>
      <point x="701" y="593" type="line"/>
      <point x="701" y="652" type="line"/>
      <point x="428" y="652" type="line"/>
    </contour>
    <contour>
      <point x="511" y="0" type="line"/>
      <point x="616" y="0" type="line"/>
      <point x="616" y="652" type="line"/>
      <point x="546" y="652" type="line"/>
      <point x="546" y="286" type="line"/>
      <point x="279" y="652" type="line"/>
      <point x="24" y="652" type="line"/>
      <point x="24" y="592" type="line"/>
      <point x="92" y="587" type="line"/>
    </contour>
  </outline>
</glyph>
<glyph name="Q" format="2">
  <advance width="700"/>
  <unicode hex="0051"/>
  <anchor x="350" y="682" name="aboveUC"/>
  <anchor x="350" y="-22" name="belowLC"/>
  <anchor x="492" y="669" name="hornLC"/>
  <anchor x="440" y="0" name="ogonek"/>
  <outline>
    <contour>
      <point x="490" y="-202" type="curve" smooth="yes"/>
      <point x="549" y="-202"/>
      <point x="601" y="-192"/>
      <point x="634" y="-170" type="curve"/>
      <point x="608" y="-106" type="line"/>
      <point x="586" y="-116"/>
      <point x="558" y="-118"/>
      <point x="538" y="-118" type="curve" smooth="yes"/>
      <point x="467" y="-118"/>
      <point x="425" y="-59"/>
      <point x="441" y="32" type="curve"/>
      <point x="253" y="32" type="line"/>
      <point x="253" y="14" type="line" smooth="yes"/>
      <point x="253" y="-116"/>
      <point x="338" y="-202"/>
    </contour>
    <contour>
      <point x="350" y="-20" type="curve" smooth="yes"/>
      <point x="519" y="-20"/>
      <point x="672" y="91"/>
      <point x="672" y="326" type="curve" smooth="yes"/>
      <point x="672" y="561"/>
      <point x="518" y="672"/>
      <point x="350" y="672" type="curve" smooth="yes"/>
      <point x="182" y="672"/>
      <point x="28" y="561"/>
      <point x="28" y="326" type="curve" smooth="yes"/>
      <point x="28" y="91"/>
      <point x="181" y="-20"/>
    </contour>
    <contour>
      <point x="350" y="41" type="curve" smooth="yes"/>
      <point x="265" y="41"/>
      <point x="233" y="154"/>
      <point x="233" y="326" type="curve" smooth="yes"/>
      <point x="233" y="497"/>
      <point x="265" y="612"/>
      <point x="350" y="612" type="curve" smooth="yes"/>
      <point x="435" y="612"/>
      <point x="467" y="497"/>
      <point x="467" y="326" type="curve" smooth="yes"/>
      <point x="467" y="154"/>
      <point x="435" y="41"/>
    </contour>
  </outline>
</glyph>
<glyph name="bracketright" format="2">
  <advance width="360"/>
  <unicode hex="005D"/>
  <outline>
    <contour>
      <point x="187" y="715" type="line"/>
      <point x="10" y="715" type="line"/>
      <point x="10" y="656" type="line"/>
      <point x="166" y="641" type="line"/>
      <point x="187" y="641" type="line"/>
    </contour>
    <contour>
      <point x="187" y="-85" type="line"/>
      <point x="166" y="-85" type="line"/>
      <point x="10" y="-100" type="line"/>
      <point x="10" y="-159" type="line"/>
      <point x="187" y="-159" type="line"/>
    </contour>
    <contour>
      <point x="257" y="398" type="line" smooth="yes"/>
      <point x="257" y="505"/>
      <point x="257" y="612"/>
      <point x="260" y="715" type="curve"/>
      <point x="114" y="715" type="line"/>
      <point x="117" y="610"/>
      <point x="117" y="503"/>
      <point x="117" y="398" type="curve" smooth="yes"/>
      <point x="117" y="158" type="line" smooth="yes"/>
      <point x="117" y="51"/>
      <point x="117" y="-56"/>
      <point x="114" y="-159" type="curve"/>
      <point x="260" y="-159" type="line"/>
      <point x="257" y="-54"/>
      <point x="257" y="53"/>
      <point x="257" y="158" type="curve" smooth="yes"/>
    </contour>
  </outline>
</glyph>
<glyph name="grave" format="2">
  <advance width="400"/>
  <unicode hex="0060"/>
  <anchor x="233" y="520" name="_aboveLC"/>
  <anchor x="233" y="764" name="aboveLC"/>
  <outline>
    <contour>
      <point x="302" y="587" type="line"/>
      <point x="289" y="612"/>
      <point x="274" y="636"/>
      <point x="227" y="713" type="curve" smooth="yes"/>
      <point x="197" y="762"/>
      <point x="178" y="784"/>
      <point x="139" y="784" type="curve" smooth="yes"/>
      <point x="109" y="784"/>
      <point x="78" y="760"/>
      <point x="78" y="721" type="curve" smooth="yes"/>
      <point x="78" y="685"/>
      <point x="109" y="657"/>
      <point x="153" y="626" type="curve" smooth="yes"/>
      <point x="219" y="579"/>
      <point x="239" y="565"/>
      <point x="259" y="552" type="curve"/>
    </contour>
  </outline>
</glyph>
<glyph name="braceright" format="2">
  <advance width="334"/>
  <unicode hex="007D"/>
  <outline>
    <contour>
      <point x="294" y="308" type="line"/>
      <point x="210" y="328"/>
      <point x="195" y="351"/>
      <point x="195" y="386" type="curve" smooth="yes"/>
      <point x="195" y="458"/>
      <point x="255" y="507"/>
      <point x="255" y="583" type="curve" smooth="yes"/>
      <point x="255" y="675"/>
      <point x="170" y="715"/>
      <point x="59" y="715" type="curve" smooth="yes"/>
      <point x="30" y="715" type="line"/>
      <point x="30" y="656" type="line"/>
      <point x="57" y="653" type="line" smooth="yes"/>
      <point x="92" y="649"/>
      <point x="115" y="620"/>
      <point x="115" y="579" type="curve" smooth="yes"/>
      <point x="115" y="531"/>
      <point x="84" y="475"/>
      <point x="84" y="416" type="curve" smooth="yes"/>
      <point x="84" y="334"/>
      <point x="142" y="271"/>
      <point x="259" y="263" type="curve"/>
      <point x="259" y="293" type="line"/>
      <point x="142" y="285"/>
      <point x="84" y="222"/>
      <point x="84" y="140" type="curve" smooth="yes"/>
      <point x="84" y="81"/>
      <point x="115" y="25"/>
      <point x="115" y="-23" type="curve" smooth="yes"/>
      <point x="115" y="-64"/>
      <point x="92" y="-93"/>
      <point x="57" y="-97" type="curve" smooth="yes"/>
      <point x="30" y="-100" type="line"/>
      <point x="30" y="-159" type="line"/>
      <point x="59" y="-159" type="line" smooth="yes"/>
      <point x="170" y="-159"/>
      <point x="255" y="-119"/>
      <point x="255" y="-27" type="curve" smooth="yes"/>
      <point x="255" y="49"/>
      <point x="195" y="98"/>
      <point x="195" y="170" type="curve" smooth="yes"/>
      <point x="195" y="205"/>
      <point x="210" y="228"/>
      <point x="294" y="248" type="curve"/>
    </contour>
  </outline>
</glyph>
<glyph name="dieresis" format="2">
  <advance width="400"/>
  <unicode hex="00A8"/>
  <anchor x="200" y="520" name="_aboveLC"/>
  <anchor x="200" y="730" name="aboveLC"/>
  <outline>
    <contour>
      <point x="74" y="567" type="curve" smooth="yes"/>
      <point x="119" y="567"/>
      <point x="158" y="595"/>
      <point x="158" y="646" type="curve" smooth="yes"/>
      <point x="158" y="696"/>
      <point x="119" y="725"/>
      <point x="74" y="725" type="curve" smooth="yes"/>
      <point x="31" y="725"/>
      <point x="-10" y="696"/>
      <point x="-10" y="646" type="curve" smooth="yes"/>
      <point x="-10" y="595"/>
      <point x="31" y="567"/>
    </contour>
    <contour>
      <point x="326" y="567" type="curve" smooth="yes"/>
      <point x="371" y="567"/>
      <point x="410" y="595"/>
      <point x="410" y="646" type="curve" smooth="yes"/>
      <point x="410" y="696"/>
      <point x="371" y="725"/>
      <point x="326" y="725" type="curve" smooth="yes"/>
      <point x="283" y="725"/>
      <point x="242" y="696"/>
      <point x="242" y="646" type="curve" smooth="yes"/>
      <point x="242" y="595"/>
      <point x="283" y="567"/>
    </contour>
  </outline>
</glyph>
<glyph name="guillemotleft" format="2">
  <advance width="578"/>
  <unicode hex="00AB"/>
  <outline>
    <contour>
      <point x="270" y="22" type="line"/>
      <point x="309" y="61" type="line"/>
      <point x="117" y="297" type="line"/>
      <point x="117" y="208" type="line"/>
      <point x="309" y="444" type="line"/>
      <point x="270" y="483" type="line"/>
      <point x="25" y="288" type="line"/>
      <point x="25" y="217" type="line"/>
    </contour>
    <contour>
      <point x="494" y="22" type="line"/>
      <point x="533" y="61" type="line"/>
      <point x="341" y="297" type="line"/>
      <point x="341" y="208" type="line"/>
      <point x="533" y="444" type="line"/>
      <point x="494" y="483" type="line"/>
      <point x="249" y="288" type="line"/>
      <point x="249" y="217" type="line"/>
    </contour>
  </outline>
</glyph>
<glyph name="macron" format="2">
  <advance width="400"/>
  <unicode hex="00AF"/>
  <anchor x="200" y="520" name="_aboveLC"/>
  <anchor x="200" y="693" name="aboveLC"/>
  <outline>
    <contour>
      <point x="29" y="583" type="line"/>
      <point x="371" y="583" type="line"/>
      <point x="371" y="683" type="line"/>
      <point x="29" y="683" type="line"/>
    </contour>
  </outline>
</glyph>
<glyph name="periodcentered" format="2">
  <advance width="300"/>
  <unicode hex="00B7"/>
  <outline>
    <contour>
      <point x="150" y="240" type="curve" smooth="yes"/>
      <point x="205" y="240"/>
      <point x="248" y="283"/>
      <point x="248" y="336" type="curve" smooth="yes"/>
      <point x="248" y="390"/>
      <point x="205" y="435"/>
      <point x="150" y="435" type="curve" smooth="yes"/>
      <point x="95" y="435"/>
      <point x="52" y="390"/>
      <point x="52" y="336" type="curve" smooth="yes"/>
      <point x="52" y="283"/>
      <point x="95" y="240"/>
    </contour>
  </outline>
</glyph>
<glyph name="guillemotright" format="2">
  <advance width="578"/>
  <unicode hex="00BB"/>
  <outline>
    <contour>
      <point x="84" y="483" type="line"/>
      <point x="45" y="444" type="line"/>
      <point x="237" y="208" type="line"/>
      <point x="237" y="297" type="line"/>
      <point x="45" y="61" type="line"/>
      <point x="84" y="22" type="line"/>
      <point x="329" y="217" type="line"/>
      <point x="329" y="288" type="line"/>
    </contour>
    <contour>
      <point x="308" y="483" type="line"/>
      <point x="269" y="444" type="line"/>
      <point x="461" y="208" type="line"/>
      <point x="461" y="297" type="line"/>
      <point x="269" y="61" type="line"/>
      <point x="308" y="22" type="line"/>
      <point x="553" y="217" type="line"/>
      <point x="553" y="288" type="line"/>
    </contour>
  </outline>
</glyph>
<glyph name="questiondown" format="2">
  <advance width="462"/>
  <unicode hex="00BF"/>
  <outline>
    <contour>
      <point x="281" y="522" type="curve" smooth="yes"/>
      <point x="221" y="522"/>
      <point x="176" y="477"/>
      <point x="176" y="419" type="curve" smooth="yes"/>
      <point x="176" y="361"/>
      <point x="221" y="315"/>
      <point x="281" y="315" type="curve" smooth="yes"/>
      <point x="339" y="315"/>
      <point x="387" y="361"/>
      <point x="387" y="419" type="curve" smooth="yes"/>
      <point x="387" y="477"/>
      <point x="339" y="522"/>
    </contour>
    <contour>
      <point x="54" y="66" type="curve" smooth="yes"/>
      <point x="54" y="-28"/>
      <point x="174" y="-136"/>
      <point x="306" y="-166" type="curve"/>
      <point x="363" y="-150"/>
      <point x="389" y="-124"/>
      <point x="389" y="-82" type="curve" smooth="yes"/>
      <point x="389" y="-40"/>
      <point x="368" y="-12"/>
      <point x="290" y="-1" type="curve" smooth="yes"/>
      <point x="118" y="23" type="line"/>
      <point x="172" y="-38" type="line"/>
      <point x="149" y="-3"/>
      <point x="143" y="12"/>
      <point x="143" y="28" type="curve" smooth="yes"/>
      <point x="143" y="49"/>
      <point x="154" y="56"/>
      <point x="188" y="63" type="curve" smooth="yes"/>
      <point x="271" y="80" type="line" smooth="yes"/>
      <point x="325" y="91"/>
      <point x="350" y="109"/>
      <point x="350" y="148" type="curve" smooth="yes"/>
      <point x="350" y="175"/>
      <point x="344" y="201"/>
      <point x="332" y="237" type="curve" smooth="yes"/>
      <point x="321" y="271" type="line"/>
      <point x="256" y="271" type="line"/>
      <point x="254" y="254" type="line" smooth="yes"/>
      <point x="250" y="229"/>
      <point x="243" y="226"/>
      <point x="215" y="218" type="curve" smooth="yes"/>
      <point x="168" y="204" type="line" smooth="yes"/>
      <point x="86" y="180"/>
      <point x="54" y="140"/>
    </contour>
  </outline>
</glyph>
<glyph name="Agrave" format="2">
  <advance width="680"/>
  <unicode hex="00C0"/>
  <anchor x="308" y="881" name="aboveUC"/>
  <anchor x="300" y="-22" name="belowLC"/>
  <anchor x="564" y="0" name="ogonek"/>
  <outline>
    <contour>
      <point x="10" y="0" type="line"/>
      <point x="220" y="0" type="line"/>
      <point x="220" y="59" type="line"/>
      <point x="131" y="74" type="line"/>
      <point x="114" y="74" type="line"/>
      <point x="10" y="59" type="line"/>
    </contour>
    <contour>
      <point x="65" y="0" type="line"/>
      <point x="129" y="0" type="line"/>
      <point x="282" y="480" type="line"/>
      <point x="431" y="0" type="line"/>
      <point x="632" y="0" type="line"/>
      <point x="409" y="652" type="line"/>
      <point x="289" y="652" type="line"/>
    </contour>
    <contour>
      <point x="168" y="180" type="line"/>
      <point x="480" y="180" type="line"/>
      <point x="455" y="243" type="line"/>
      <point x="185" y="243" type="line"/>
    </contour>
    <contour>
      <point x="342" y="0" type="line"/>
      <point x="665" y="0" type="line"/>
      <point x="665" y="56" type="line"/>
      <point x="535" y="71" type="line"/>
      <point x="450" y="71" type="line"/>
      <point x="342" y="56" type="line"/>
    </contour>
    <contour>
      <point x="407" y="729" type="line"/>
      <point x="367" y="768"/>
      <point x="326" y="806"/>
      <point x="289" y="841" type="curve" smooth="yes"/>
      <point x="256" y="872"/>
      <point x="236" y="881"/>
      <point x="210" y="881" type="curve" smooth="yes"/>
      <point x="174" y="881"/>
      <point x="149" y="851"/>
      <point x="149" y="823" type="curve" smooth="yes"/>
      <point x="149" y="804"/>
      <point x="157" y="774"/>
      <point x="210" y="752" type="curve" smooth="yes"/>
      <point x="267" y="728"/>
      <point x="322" y="706"/>
      <point x="376" y="684" type="curve"/>
    </contour>
  </outline>
</glyph>
<glyph name="Aacute" format="2">
  <advance width="680"/>
  <unicode hex="00C1"/>
  <anchor x="368" y="881" name="aboveUC"/>
  <anchor x="300" y="-22" name="belowLC"/>
  <anchor x="564" y="0" name="ogonek"/>
  <outline>
    <contour>
      <point x="10" y="0" type="line"/>
      <point x="220" y="0" type="line"/>
      <point x="220" y="59" type="line"/>
      <point x="131" y="74" type="line"/>
      <point x="114" y="74" type="line"/>
      <point x="10" y="59" type="line"/>
    </contour>
    <contour>
      <point x="65" y="0" type="line"/>
      <point x="129" y="0" type="line"/>
      <point x="282" y="480" type="line"/>
      <point x="431" y="0" type="line"/>
      <point x="632" y="0" type="line"/>
      <point x="409" y="652" type="line"/>
      <point x="289" y="652" type="line"/>
    </contour>
    <contour>
      <point x="168" y="180" type="line"/>
      <point x="480" y="180" type="line"/>
      <point x="455" y="243" type="line"/>
      <point x="185" y="243" type="line"/>
    </contour>
    <contour>
      <point x="342" y="0" type="line"/>
      <point x="665" y="0" type="line"/>
      <point x="665" y="56" type="line"/>
      <point x="535" y="71" type="line"/>
      <point x="450" y="71" type="line"/>
      <point x="342" y="56" type="line"/>
    </contour>
    <contour>
      <point x="269" y="729" type="curve"/>
      <point x="300" y="684" type="line"/>
      <point x="356" y="708"/>
      <point x="411" y="730"/>
      <point x="468" y="754" type="curve" smooth="yes"/>
      <point x="519" y="775"/>
      <point x="527" y="804"/>
      <point x="527" y="823" type="curve" smooth="yes"/>
      <point x="527" y="851"/>
      <point x="502" y="881"/>
      <point x="466" y="881" type="curve" smooth="yes"/>
      <point x="440" y="881"/>
      <point x="420" y="872"/>
      <point x="386" y="840" type="curve" smooth="yes"/>
      <point x="349" y="805"/>
      <point x="308" y="767"/>
    </contour>
  </outline>
</glyph>
<glyph name="Acircumflex" format="2">
  <advance width="680"/>
  <unicode hex="00C2"/>
  <anchor x="344" y="892" name="aboveUC"/>
  <anchor x="300" y="-22" name="belowLC"/>
  <anchor x="564" y="0" name="ogonek"/>
  <outline>
    <contour>
      <point x="10" y="0" type="line"/>
      <point x="220" y="0" type="line"/>
      <point x="220" y="59" type="line"/>
      <point x="131" y="74" type="line"/>
      <point x="114" y="74" type="line"/>
      <point x="10" y="59" type="line"/>
    </contour>
    <contour>
      <point x="65" y="0" type="line"/>
      <point x="129" y="0" type="line"/>
      <point x="282" y="480" type="line"/>
      <point x="431" y="0" type="line"/>
      <point x="632" y="0" type="line"/>
      <point x="409" y="652" type="line"/>
      <point x="289" y="652" type="line"/>
    </contour>
    <contour>
      <point x="168" y="180" type="line"/>
      <point x="480" y="180" type="line"/>
      <point x="455" y="243" type="line"/>
      <point x="185" y="243" type="line"/>
    </contour>
    <contour>
      <point x="342" y="0" type="line"/>
      <point x="665" y="0" type="line"/>
      <point x="665" y="56" type="line"/>
      <point x="535" y="71" type="line"/>
      <point x="450" y="71" type="line"/>
      <point x="342" y="56" type="line"/>
    </contour>
    <contour>
      <point x="385" y="882" type="line"/>
      <point x="303" y="882" type="line"/>
      <point x="146" y="715" type="line"/>
      <point x="180" y="675" type="line"/>
      <point x="394" y="792" type="line"/>
      <point x="294" y="792" type="line"/>
      <point x="508" y="675" type="line"/>
      <point x="542" y="715" type="line"/>
    </contour>
  </outline>
</glyph>
<glyph name="Atilde" format="2">
  <advance width="680"/>
  <unicode hex="00C3"/>
  <anchor x="341" y="869" name="aboveUC"/>
  <anchor x="300" y="-22" name="belowLC"/>
  <anchor x="564" y="0" name="ogonek"/>
  <outline>
    <contour>
      <point x="10" y="0" type="line"/>
      <point x="220" y="0" type="line"/>
      <point x="220" y="59" type="line"/>
      <point x="131" y="74" type="line"/>
      <point x="114" y="74" type="line"/>
      <point x="10" y="59" type="line"/>
    </contour>
    <contour>
      <point x="65" y="0" type="line"/>
      <point x="129" y="0" type="line"/>
      <point x="282" y="480" type="line"/>
      <point x="431" y="0" type="line"/>
      <point x="632" y="0" type="line"/>
      <point x="409" y="652" type="line"/>
      <point x="289" y="652" type="line"/>
    </contour>
    <contour>
      <point x="168" y="180" type="line"/>
      <point x="480" y="180" type="line"/>
      <point x="455" y="243" type="line"/>
      <point x="185" y="243" type="line"/>
    </contour>
    <contour>
      <point x="342" y="0" type="line"/>
      <point x="665" y="0" type="line"/>
      <point x="665" y="56" type="line"/>
      <point x="535" y="71" type="line"/>
      <point x="450" y="71" type="line"/>
      <point x="342" y="56" type="line"/>
    </contour>
    <contour>
      <point x="159" y="714" type="curve"/>
      <point x="206" y="694" type="line"/>
      <point x="218" y="725"/>
      <point x="239" y="744"/>
      <point x="267" y="744" type="curve" smooth="yes"/>
      <point x="292" y="744"/>
      <point x="312" y="729"/>
      <point x="333" y="718" type="curve" smooth="yes"/>
      <point x="354" y="707"/>
      <point x="381" y="695"/>
      <point x="408" y="695" type="curve" smooth="yes"/>
      <point x="464" y="695"/>
      <point x="513" y="747"/>
      <point x="524" y="839" type="curve"/>
      <point x="477" y="859" type="line"/>
      <point x="465" y="827"/>
      <point x="443" y="808"/>
      <point x="415" y="808" type="curve" smooth="yes"/>
      <point x="391" y="808"/>
      <point x="371" y="821"/>
      <point x="351" y="833" type="curve" smooth="yes"/>
      <point x="331" y="845"/>
      <point x="307" y="857"/>
      <point x="278" y="857" type="curve" smooth="yes"/>
      <point x="219" y="857"/>
      <point x="170" y="807"/>
    </contour>
  </outline>
</glyph>
<glyph name="Adieresis" format="2">
  <advance width="680"/>
  <unicode hex="00C4"/>
  <anchor x="348" y="860" name="aboveUC"/>
  <anchor x="300" y="-22" name="belowLC"/>
  <anchor x="564" y="0" name="ogonek"/>
  <outline>
    <contour>
      <point x="10" y="0" type="line"/>
      <point x="220" y="0" type="line"/>
      <point x="220" y="59" type="line"/>
      <point x="131" y="74" type="line"/>
      <point x="114" y="74" type="line"/>
      <point x="10" y="59" type="line"/>
    </contour>
    <contour>
      <point x="65" y="0" type="line"/>
      <point x="129" y="0" type="line"/>
      <point x="282" y="480" type="line"/>
      <point x="431" y="0" type="line"/>
      <point x="632" y="0" type="line"/>
      <point x="409" y="652" type="line"/>
      <point x="289" y="652" type="line"/>
    </contour>
    <contour>
      <point x="168" y="180" type="line"/>
      <point x="480" y="180" type="line"/>
      <point x="455" y="243" type="line"/>
      <point x="185" y="243" type="line"/>
    </contour>
    <contour>
      <point x="342" y="0" type="line"/>
      <point x="665" y="0" type="line"/>
      <point x="665" y="56" type="line"/>
      <point x="535" y="71" type="line"/>
      <point x="450" y="71" type="line"/>
      <point x="342" y="56" type="line"/>
    </contour>
    <contour>
      <point x="218" y="700" type="curve" smooth="yes"/>
      <point x="261" y="700"/>
      <point x="298" y="727"/>
      <point x="298" y="775" type="curve" smooth="yes"/>
      <point x="298" y="823"/>
      <point x="261" y="850"/>
      <point x="218" y="850" type="curve" smooth="yes"/>
      <point x="177" y="850"/>
      <point x="138" y="823"/>
      <point x="138" y="775" type="curve" smooth="yes"/>
      <point x="138" y="727"/>
      <point x="177" y="700"/>
    </contour>
    <contour>
      <point x="478" y="700" type="curve" smooth="yes"/>
      <point x="521" y="700"/>
      <point x="558" y="727"/>
      <point x="558" y="775" type="curve" smooth="yes"/>
      <point x="558" y="823"/>
      <point x="521" y="850"/>
      <point x="478" y="850" type="curve" smooth="yes"/>
      <point x="437" y="850"/>
      <point x="398" y="823"/>
      <point x="398" y="775" type="curve" smooth="yes"/>
      <point x="398" y="727"/>
      <point x="437" y="700"/>
    </contour>
  </outline>
</glyph>
<glyph name="Aring" format="2">
  <advance width="680"/>
  <unicode hex="00C5"/>
  <anchor x="348" y="905" name="aboveUC"/>
  <anchor x="300" y="-22" name="belowLC"/>
  <anchor x="564" y="0" name="ogonek"/>
  <outline>
    <contour>
      <point x="10" y="0" type="line"/>
      <point x="220" y="0" type="line"/>
      <point x="220" y="59" type="line"/>
      <point x="131" y="74" type="line"/>
      <point x="114" y="74" type="line"/>
      <point x="10" y="59" type="line"/>
    </contour>
    <contour>
      <point x="65" y="0" type="line"/>
      <point x="129" y="0" type="line"/>
      <point x="282" y="480" type="line"/>
      <point x="431" y="0" type="line"/>
      <point x="632" y="0" type="line"/>
      <point x="409" y="652" type="line"/>
      <point x="289" y="652" type="line"/>
    </contour>
    <contour>
      <point x="168" y="180" type="line"/>
      <point x="480" y="180" type="line"/>
      <point x="455" y="243" type="line"/>
      <point x="185" y="243" type="line"/>
    </contour>
    <contour>
      <point x="342" y="0" type="line"/>
      <point x="665" y="0" type="line"/>
      <point x="665" y="56" type="line"/>
      <point x="535" y="71" type="line"/>
      <point x="450" y="71" type="line"/>
      <point x="342" y="56" type="line"/>
    </contour>
    <contour>
      <point x="348" y="693" type="curve" smooth="yes"/>
      <point x="409" y="693"/>
      <point x="454" y="730"/>
      <point x="454" y="794" type="curve" smooth="yes"/>
      <point x="454" y="857"/>
      <point x="409" y="895"/>
      <point x="348" y="895" type="curve" smooth="yes"/>
      <point x="287" y="895"/>
      <point x="242" y="855"/>
      <point x="242" y="794" type="curve" smooth="yes"/>
      <point x="242" y="732"/>
      <point x="287" y="693"/>
    </contour>
    <contour>
      <point x="348" y="743" type="curve" smooth="yes"/>
      <point x="318" y="743"/>
      <point x="298" y="762"/>
      <point x="298" y="794" type="curve" smooth="yes"/>
      <point x="298" y="824"/>
      <point x="318" y="845"/>
      <point x="348" y="845" type="curve" smooth="yes"/>
      <point x="378" y="845"/>
      <point x="398" y="824"/>
      <point x="398" y="794" type="curve" smooth="yes"/>
      <point x="398" y="762"/>
      <point x="378" y="743"/>
    </contour>
  </outline>
</glyph>
<glyph name="Ccedilla" format="2">
  <advance width="618"/>
  <unicode hex="00C7"/>
  <anchor x="363" y="682" name="aboveUC"/>
  <anchor x="378" y="0" name="baseLC"/>
  <anchor x="377" y="-22" name="belowLC"/>
  <outline>
    <contour>
      <point x="28" y="81"/>
      <point x="190" y="-20"/>
      <point x="379" y="-20" type="curve" smooth="yes"/>
      <point x="471" y="-20"/>
      <point x="542" y="4"/>
      <point x="592" y="32" type="curve"/>
      <point x="596" y="189" type="line"/>
      <point x="514" y="189" type="line"/>
      <point x="477" y="29" type="line"/>
      <point x="546" y="44" type="line"/>
      <point x="546" y="94" type="line"/>
      <point x="503" y="62"/>
      <point x="460" y="40"/>
      <point x="413" y="40" type="curve" smooth="yes"/>
      <point x="320" y="40"/>
      <point x="233" y="118"/>
      <point x="233" y="325" type="curve" smooth="yes"/>
      <point x="233" y="533"/>
      <point x="321" y="613"/>
      <point x="417" y="613" type="curve" smooth="yes"/>
      <point x="461" y="613"/>
      <point x="495" y="595"/>
      <point x="539" y="556" type="curve"/>
      <point x="539" y="609" type="line"/>
      <point x="470" y="625" type="line"/>
      <point x="508" y="463" type="line"/>
      <point x="590" y="463" type="line"/>
      <point x="586" y="622" type="line"/>
      <point x="530" y="652"/>
      <point x="473" y="672"/>
      <point x="389" y="672" type="curve" smooth="yes"/>
      <point x="204" y="672"/>
      <point x="28" y="577"/>
      <point x="28" y="326" type="curve" smooth="yes"/>
    </contour>
    <contour>
      <point x="322" y="-90" type="line"/>
      <point x="361" y="-92"/>
      <point x="382" y="-106"/>
      <point x="382" y="-135" type="curve" smooth="yes"/>
      <point x="382" y="-156"/>
      <point x="367" y="-170"/>
      <point x="332" y="-170" type="curve" smooth="yes"/>
      <point x="314" y="-170"/>
      <point x="297" y="-167"/>
      <point x="277" y="-160" type="curve"/>
      <point x="265" y="-212" type="line"/>
      <point x="291" y="-222"/>
      <point x="315" y="-227"/>
      <point x="349" y="-227" type="curve" smooth="yes"/>
      <point x="445" y="-227"/>
      <point x="493" y="-188"/>
      <point x="493" y="-135" type="curve" smooth="yes"/>
      <point x="493" y="-92"/>
      <point x="460" y="-53"/>
      <point x="351" y="-43" type="curve"/>
      <point x="386" y="-71" type="line"/>
      <point x="395" y="5" type="line"/>
      <point x="337" y="5" type="line"/>
    </contour>
  </outline>
</glyph>
<glyph name="Egrave" format="2">
  <advance width="591"/>
  <unicode hex="00C8"/>
  <anchor x="275" y="881" name="aboveUC"/>
  <anchor x="324" y="-22" name="belowLC"/>
  <anchor x="452" y="0" name="ogonek"/>
  <outline>
    <contour>
      <point x="28" y="0" type="line"/>
      <point x="197" y="0" type="line"/>
      <point x="197" y="74" type="line"/>
      <point x="179" y="74" type="line"/>
      <point x="28" y="59" type="line"/>
    </contour>
    <contour>
      <point x="98" y="205"/>
      <point x="98" y="101"/>
      <point x="95" y="0" type="curve"/>
      <point x="299" y="0" type="line"/>
      <point x="296" y="103"/>
      <point x="296" y="207"/>
      <point x="296" y="311" type="curve" smooth="yes"/>
      <point x="296" y="342" type="line" smooth="yes"/>
      <point x="296" y="447"/>
      <point x="296" y="551"/>
      <point x="299" y="652" type="curve"/>
      <point x="95" y="652" type="line"/>
      <point x="98" y="549"/>
      <point x="98" y="445"/>
      <point x="98" y="342" type="curve" smooth="yes"/>
      <point x="98" y="310" type="line" smooth="yes"/>
    </contour>
    <contour>
      <point x="197" y="0" type="line"/>
      <point x="564" y="0" type="line"/>
      <point x="571" y="170" type="line"/>
      <point x="477" y="170" type="line"/>
      <point x="453" y="28" type="line"/>
      <point x="488" y="58" type="line"/>
      <point x="197" y="58" type="line"/>
    </contour>
    <contour>
      <point x="197" y="306" type="line"/>
      <point x="415" y="306" type="line"/>
      <point x="415" y="370" type="line"/>
      <point x="197" y="370" type="line"/>
    </contour>
    <contour>
      <point x="400" y="235" type="line"/>
      <point x="463" y="235" type="line"/>
      <point x="463" y="442" type="line"/>
      <point x="400" y="442" type="line"/>
      <point x="385" y="350" type="line"/>
      <point x="385" y="332" type="line"/>
    </contour>
    <contour>
      <point x="28" y="593" type="line"/>
      <point x="179" y="578" type="line"/>
      <point x="197" y="578" type="line"/>
      <point x="197" y="652" type="line"/>
      <point x="28" y="652" type="line"/>
    </contour>
    <contour>
      <point x="457" y="482" type="line"/>
      <point x="551" y="482" type="line"/>
      <point x="544" y="652" type="line"/>
      <point x="197" y="652" type="line"/>
      <point x="197" y="593" type="line"/>
      <point x="468" y="593" type="line"/>
      <point x="433" y="623" type="line"/>
    </contour>
    <contour>
      <point x="374" y="729" type="line"/>
      <point x="334" y="768"/>
      <point x="293" y="806"/>
      <point x="256" y="841" type="curve" smooth="yes"/>
      <point x="223" y="872"/>
      <point x="203" y="881"/>
      <point x="177" y="881" type="curve" smooth="yes"/>
      <point x="141" y="881"/>
      <point x="116" y="851"/>
      <point x="116" y="823" type="curve" smooth="yes"/>
      <point x="116" y="804"/>
      <point x="124" y="774"/>
      <point x="177" y="752" type="curve" smooth="yes"/>
      <point x="234" y="728"/>
      <point x="289" y="706"/>
      <point x="343" y="684" type="curve"/>
    </contour>
  </outline>
</glyph>
<glyph name="Igrave" format="2">
  <advance width="395"/>
  <unicode hex="00CC"/>
  <anchor x="177" y="881" name="aboveUC"/>
  <anchor x="197" y="-22" name="belowLC"/>
  <anchor x="249" y="0" name="ogonek"/>
  <outline>
    <contour>
      <point x="28" y="0" type="line"/>
      <point x="367" y="0" type="line"/>
      <point x="367" y="59" type="line"/>
      <point x="212" y="74" type="line"/>
      <point x="179" y="74" type="line"/>
      <point x="28" y="59" type="line"/>
    </contour>
    <contour>
      <point x="98" y="205"/>
      <point x="98" y="101"/>
      <point x="95" y="0" type="curve"/>
      <point x="299" y="0" type="line"/>
      <point x="296" y="103"/>
      <point x="296" y="207"/>
      <point x="296" y="311" type="curve" smooth="yes"/>
      <point x="296" y="342" type="line" smooth="yes"/>
      <point x="296" y="447"/>
      <point x="296" y="551"/>
      <point x="299" y="652" type="curve"/>
      <point x="95" y="652" type="line"/>
      <point x="98" y="549"/>
      <point x="98" y="445"/>
      <point x="98" y="342" type="curve" smooth="yes"/>
      <point x="98" y="310" type="line" smooth="yes"/>
    </contour>
    <contour>
      <point x="28" y="593" type="line"/>
      <point x="179" y="578" type="line"/>
      <point x="212" y="578" type="line"/>
      <point x="367" y="593" type="line"/>
      <point x="367" y="652" type="line"/>
      <point x="28" y="652" type="line"/>
    </contour>
    <contour>
      <point x="276" y="729" type="line"/>
      <point x="236" y="768"/>
      <point x="195" y="806"/>
      <point x="158" y="841" type="curve" smooth="yes"/>
      <point x="125" y="872"/>
      <point x="105" y="881"/>
      <point x="79" y="881" type="curve" smooth="yes"/>
      <point x="43" y="881"/>
      <point x="18" y="851"/>
      <point x="18" y="823" type="curve" smooth="yes"/>
      <point x="18" y="804"/>
      <point x="26" y="774"/>
      <point x="79" y="752" type="curve" smooth="yes"/>
      <point x="136" y="728"/>
      <point x="191" y="706"/>
      <point x="245" y="684" type="curve"/>
    </contour>
  </outline>
</glyph>
<glyph name="Iacute" format="2">
  <advance width="395"/>
  <unicode hex="00CD"/>
  <anchor x="217" y="881" name="aboveUC"/>
  <anchor x="197" y="-22" name="belowLC"/>
  <anchor x="249" y="0" name="ogonek"/>
  <outline>
    <contour>
      <point x="28" y="0" type="line"/>
      <point x="367" y="0" type="line"/>
      <point x="367" y="59" type="line"/>
      <point x="212" y="74" type="line"/>
      <point x="179" y="74" type="line"/>
      <point x="28" y="59" type="line"/>
    </contour>
    <contour>
      <point x="98" y="205"/>
      <point x="98" y="101"/>
      <point x="95" y="0" type="curve"/>
      <point x="299" y="0" type="line"/>
      <point x="296" y="103"/>
      <point x="296" y="207"/>
      <point x="296" y="311" type="curve" smooth="yes"/>
      <point x="296" y="342" type="line" smooth="yes"/>
      <point x="296" y="447"/>
      <point x="296" y="551"/>
      <point x="299" y="652" type="curve"/>
      <point x="95" y="652" type="line"/>
      <point x="98" y="549"/>
      <point x="98" y="445"/>
      <point x="98" y="342" type="curve" smooth="yes"/>
      <point x="98" y="310" type="line" smooth="yes"/>
    </contour>
    <contour>
      <point x="28" y="593" type="line"/>
      <point x="179" y="578" type="line"/>
      <point x="212" y="578" type="line"/>
      <point x="367" y="593" type="line"/>
      <point x="367" y="652" type="line"/>
      <point x="28" y="652" type="line"/>
    </contour>
    <contour>
      <point x="118" y="729" type="curve"/>
      <point x="149" y="684" type="line"/>
      <point x="205" y="708"/>
      <point x="260" y="730"/>
      <point x="317" y="754" type="curve" smooth="yes"/>
      <point x="368" y="775"/>
      <point x="376" y="804"/>
      <point x="376" y="823" type="curve" smooth="yes"/>
      <point x="376" y="851"/>
      <point x="351" y="881"/>
      <point x="315" y="881" type="curve" smooth="yes"/>
      <point x="289" y="881"/>
      <point x="269" y="872"/>
      <point x="235" y="840" type="curve" smooth="yes"/>
      <point x="198" y="805"/>
      <point x="157" y="767"/>
    </contour>
  </outline>
</glyph>
<glyph name="Icircumflex" format="2">
  <advance width="395"/>
  <unicode hex="00CE"/>
  <anchor x="197" y="892" name="aboveUC"/>
  <anchor x="197" y="-22" name="belowLC"/>
  <anchor x="249" y="0" name="ogonek"/>
  <outline>
    <contour>
      <point x="28" y="0" type="line"/>
      <point x="367" y="0" type="line"/>
      <point x="367" y="59" type="line"/>
      <point x="212" y="74" type="line"/>
      <point x="179" y="74" type="line"/>
      <point x="28" y="59" type="line"/>
    </contour>
    <contour>
      <point x="98" y="205"/>
      <point x="98" y="101"/>
      <point x="95" y="0" type="curve"/>
      <point x="299" y="0" type="line"/>
      <point x="296" y="103"/>
      <point x="296" y="207"/>
      <point x="296" y="311" type="curve" smooth="yes"/>
      <point x="296" y="342" type="line" smooth="yes"/>
      <point x="296" y="447"/>
      <point x="296" y="551"/>
      <point x="299" y="652" type="curve"/>
      <point x="95" y="652" type="line"/>
      <point x="98" y="549"/>
      <point x="98" y="445"/>
      <point x="98" y="342" type="curve" smooth="yes"/>
      <point x="98" y="310" type="line" smooth="yes"/>
    </contour>
    <contour>
      <point x="28" y="593" type="line"/>
      <point x="179" y="578" type="line"/>
      <point x="212" y="578" type="line"/>
      <point x="367" y="593" type="line"/>
      <point x="367" y="652" type="line"/>
      <point x="28" y="652" type="line"/>
    </contour>
    <contour>
      <point x="238" y="882" type="line"/>
      <point x="156" y="882" type="line"/>
      <point x="-1" y="715" type="line"/>
      <point x="33" y="675" type="line"/>
      <point x="247" y="792" type="line"/>
      <point x="147" y="792" type="line"/>
      <point x="361" y="675" type="line"/>
      <point x="395" y="715" type="line"/>
    </contour>
  </outline>
</glyph>
<glyph name="Idieresis" format="2">
  <advance width="395"/>
  <unicode hex="00CF"/>
  <anchor x="197" y="682" name="aboveUC"/>
  <anchor x="197" y="-22" name="belowLC"/>
  <anchor x="249" y="0" name="ogonek"/>
  <outline>
    <contour>
      <point x="100" y="700" type="curve" smooth="yes"/>
      <point x="138" y="700"/>
      <point x="174" y="727"/>
      <point x="174" y="775" type="curve" smooth="yes"/>
      <point x="174" y="823"/>
      <point x="138" y="850"/>
      <point x="100" y="850" type="curve" smooth="yes"/>
      <point x="60" y="850"/>
      <point x="24" y="823"/>
      <point x="24" y="775" type="curve" smooth="yes"/>
      <point x="24" y="727"/>
      <point x="60" y="700"/>
    </contour>
    <contour>
      <point x="297" y="700" type="curve" smooth="yes"/>
      <point x="335" y="700"/>
      <point x="371" y="727"/>
      <point x="371" y="775" type="curve" smooth="yes"/>
      <point x="371" y="823"/>
      <point x="335" y="850"/>
      <point x="297" y="850" type="curve" smooth="yes"/>
      <point x="257" y="850"/>
      <point x="221" y="823"/>
      <point x="221" y="775" type="curve" smooth="yes"/>
      <point x="221" y="727"/>
      <point x="257" y="700"/>
    </contour>
    <contour>
      <point x="28" y="0" type="line"/>
      <point x="367" y="0" type="line"/>
      <point x="367" y="59" type="line"/>
      <point x="212" y="74" type="line"/>
      <point x="179" y="74" type="line"/>
      <point x="28" y="59" type="line"/>
    </contour>
    <contour>
      <point x="98" y="205"/>
      <point x="98" y="101"/>
      <point x="95" y="0" type="curve"/>
      <point x="299" y="0" type="line"/>
      <point x="296" y="103"/>
      <point x="296" y="207"/>
      <point x="296" y="311" type="curve" smooth="yes"/>
      <point x="296" y="342" type="line" smooth="yes"/>
      <point x="296" y="447"/>
      <point x="296" y="551"/>
      <point x="299" y="652" type="curve"/>
      <point x="95" y="652" type="line"/>
      <point x="98" y="549"/>
      <point x="98" y="445"/>
      <point x="98" y="342" type="curve" smooth="yes"/>
      <point x="98" y="310" type="line" smooth="yes"/>
    </contour>
    <contour>
      <point x="28" y="593" type="line"/>
      <point x="179" y="578" type="line"/>
      <point x="212" y="578" type="line"/>
      <point x="367" y="593" type="line"/>
      <point x="367" y="652" type="line"/>
      <point x="28" y="652" type="line"/>
    </contour>
  </outline>
</glyph>
<glyph name="Ntilde" format="2">
  <advance width="725"/>
  <unicode hex="00D1"/>
  <anchor x="362" y="869" name="aboveUC"/>
  <anchor x="381" y="-22" name="belowLC"/>
  <outline>
    <contour>
      <point x="24" y="0" type="line"/>
      <point x="297" y="0" type="line"/>
      <point x="297" y="59" type="line"/>
      <point x="163" y="74" type="line"/>
      <point x="131" y="74" type="line"/>
      <point x="24" y="59" type="line"/>
    </contour>
    <contour>
      <point x="109" y="0" type="line"/>
      <point x="179" y="0" type="line"/>
      <point x="179" y="624" type="line"/>
      <point x="109" y="624" type="line"/>
    </contour>
    <contour>
      <point x="428" y="593" type="line"/>
      <point x="568" y="578" type="line"/>
      <point x="599" y="578" type="line"/>
      <point x="701" y="593" type="line"/>
      <point x="701" y="652" type="line"/>
      <point x="428" y="652" type="line"/>
    </contour>
    <contour>
      <point x="511" y="0" type="line"/>
      <point x="616" y="0" type="line"/>
      <point x="616" y="652" type="line"/>
      <point x="546" y="652" type="line"/>
      <point x="546" y="286" type="line"/>
      <point x="279" y="652" type="line"/>
      <point x="24" y="652" type="line"/>
      <point x="24" y="592" type="line"/>
      <point x="92" y="587" type="line"/>
    </contour>
    <contour>
      <point x="180" y="714" type="curve"/>
      <point x="227" y="694" type="line"/>
      <point x="239" y="725"/>
      <point x="260" y="744"/>
      <point x="288" y="744" type="curve" smooth="yes"/>
      <point x="313" y="744"/>
      <point x="333" y="729"/>
      <point x="354" y="718" type="curve" smooth="yes"/>
      <point x="375" y="707"/>
      <point x="402" y="695"/>
      <point x="429" y="695" type="curve" smooth="yes"/>
      <point x="485" y="695"/>
      <point x="534" y="747"/>
      <point x="545" y="839" type="curve"/>
      <point x="498" y="859" type="line"/>
      <point x="486" y="827"/>
      <point x="464" y="808"/>
      <point x="436" y="808" type="curve" smooth="yes"/>
      <point x="412" y="808"/>
      <point x="392" y="821"/>
      <point x="372" y="833" type="curve" smooth="yes"/>
      <point x="352" y="845"/>
      <point x="328" y="857"/>
      <point x="299" y="857" type="curve" smooth="yes"/>
      <point x="240" y="857"/>
      <point x="191" y="807"/>
    </contour>
  </outline>
</glyph>
<glyph name="Ograve" format="2">
  <advance width="700"/>
  <unicode hex="00D2"/>
  <anchor x="330" y="885" name="aboveUC"/>
  <anchor x="350" y="-22" name="belowLC"/>
  <anchor x="492" y="669" name="hornLC"/>
  <anchor x="440" y="0" name="ogonek"/>
  <outline>
    <contour>
      <point x="350" y="-20" type="curve" smooth="yes"/>
      <point x="519" y="-20"/>
      <point x="672" y="91"/>
      <point x="672" y="326" type="curve" smooth="yes"/>
      <point x="672" y="561"/>
      <point x="518" y="672"/>
      <point x="350" y="672" type="curve" smooth="yes"/>
      <point x="182" y="672"/>
      <point x="28" y="561"/>
      <point x="28" y="326" type="curve" smooth="yes"/>
      <point x="28" y="91"/>
      <point x="181" y="-20"/>
    </contour>
    <contour>
      <point x="350" y="41" type="curve" smooth="yes"/>
      <point x="265" y="41"/>
      <point x="233" y="154"/>
      <point x="233" y="326" type="curve" smooth="yes"/>
      <point x="233" y="497"/>
      <point x="265" y="612"/>
      <point x="350" y="612" type="curve" smooth="yes"/>
      <point x="435" y="612"/>
      <point x="467" y="497"/>
      <point x="467" y="326" type="curve" smooth="yes"/>
      <point x="467" y="154"/>
      <point x="435" y="41"/>
    </contour>
    <contour>
      <point x="429" y="733" type="line"/>
      <point x="389" y="772"/>
      <point x="348" y="810"/>
      <point x="311" y="845" type="curve" smooth="yes"/>
      <point x="278" y="876"/>
      <point x="258" y="885"/>
      <point x="232" y="885" type="curve" smooth="yes"/>
      <point x="196" y="885"/>
      <point x="171" y="855"/>
      <point x="171" y="827" type="curve" smooth="yes"/>
      <point x="171" y="808"/>
      <point x="179" y="778"/>
      <point x="232" y="756" type="curve" smooth="yes"/>
      <point x="289" y="732"/>
      <point x="344" y="710"/>
      <point x="398" y="688" type="curve"/>
    </contour>
  </outline>
</glyph>
<glyph name="Oacute" format="2">
  <advance width="700"/>
  <unicode hex="00D3"/>
  <anchor x="370" y="885" name="aboveUC"/>
  <anchor x="350" y="-22" name="belowLC"/>
  <anchor x="492" y="669" name="hornLC"/>
  <anchor x="440" y="0" name="ogonek"/>
  <outline>
    <contour>
      <point x="350" y="-20" type="curve" smooth="yes"/>
      <point x="519" y="-20"/>
      <point x="672" y="91"/>
      <point x="672" y="326" type="curve" smooth="yes"/>
      <point x="672" y="561"/>
      <point x="518" y="672"/>
      <point x="350" y="672" type="curve" smooth="yes"/>
      <point x="182" y="672"/>
      <point x="28" y="561"/>
      <point x="28" y="326" type="curve" smooth="yes"/>
      <point x="28" y="91"/>
      <point x="181" y="-20"/>
    </contour>
    <contour>
      <point x="350" y="41" type="curve" smooth="yes"/>
      <point x="265" y="41"/>
      <point x="233" y="154"/>
      <point x="233" y="326" type="curve" smooth="yes"/>
      <point x="233" y="497"/>
      <point x="265" y="612"/>
      <point x="350" y="612" type="curve" smooth="yes"/>
      <point x="435" y="612"/>
      <point x="467" y="497"/>
      <point x="467" y="326" type="curve" smooth="yes"/>
      <point x="467" y="154"/>
      <point x="435" y="41"/>
    </contour>
    <contour>
      <point x="271" y="733" type="curve"/>
      <point x="302" y="688" type="line"/>
      <point x="358" y="712"/>
      <point x="413" y="734"/>
      <point x="470" y="758" type="curve" smooth="yes"/>
      <point x="521" y="779"/>
      <point x="529" y="808"/>
      <point x="529" y="827" type="curve" smooth="yes"/>
      <point x="529" y="855"/>
      <point x="504" y="885"/>
      <point x="468" y="885" type="curve" smooth="yes"/>
      <point x="442" y="885"/>
      <point x="422" y="876"/>
      <point x="388" y="844" type="curve" smooth="yes"/>
      <point x="351" y="809"/>
      <point x="310" y="771"/>
    </contour>
  </outline>
</glyph>
<glyph name="Ocircumflex" format="2">
  <advance width="700"/>
  <unicode hex="00D4"/>
  <anchor x="350" y="892" name="aboveUC"/>
  <anchor x="350" y="-22" name="belowLC"/>
  <anchor x="492" y="669" name="hornLC"/>
  <anchor x="440" y="0" name="ogonek"/>
  <outline>
    <contour>
      <point x="350" y="-20" type="curve" smooth="yes"/>
      <point x="519" y="-20"/>
      <point x="672" y="91"/>
      <point x="672" y="326" type="curve" smooth="yes"/>
      <point x="672" y="561"/>
      <point x="518" y="672"/>
      <point x="350" y="672" type="curve" smooth="yes"/>
      <point x="182" y="672"/>
      <point x="28" y="561"/>
      <point x="28" y="326" type="curve" smooth="yes"/>
      <point x="28" y="91"/>
      <point x="181" y="-20"/>
    </contour>
    <contour>
      <point x="350" y="41" type="curve" smooth="yes"/>
      <point x="265" y="41"/>
      <point x="233" y="154"/>
      <point x="233" y="326" type="curve" smooth="yes"/>
      <point x="233" y="497"/>
      <point x="265" y="612"/>
      <point x="350" y="612" type="curve" smooth="yes"/>
      <point x="435" y="612"/>
      <point x="467" y="497"/>
      <point x="467" y="326" type="curve" smooth="yes"/>
      <point x="467" y="154"/>
      <point x="435" y="41"/>
    </contour>
    <contour>
      <point x="391" y="882" type="line"/>
      <point x="309" y="882" type="line"/>
      <point x="152" y="715" type="line"/>
      <point x="186" y="675" type="line"/>
      <point x="400" y="792" type="line"/>
      <point x="300" y="792" type="line"/>
      <point x="514" y="675" type="line"/>
      <point x="548" y="715" type="line"/>
    </contour>
  </outline>
</glyph>
<glyph name="Otilde" format="2">
  <advance width="700"/>
  <unicode hex="00D5"/>
  <anchor x="350" y="879" name="aboveUC"/>
  <anchor x="350" y="-22" name="belowLC"/>
  <anchor x="492" y="669" name="hornLC"/>
  <anchor x="440" y="0" name="ogonek"/>
  <outline>
    <contour>
      <point x="350" y="-20" type="curve" smooth="yes"/>
      <point x="519" y="-20"/>
      <point x="672" y="91"/>
      <point x="672" y="326" type="curve" smooth="yes"/>
      <point x="672" y="561"/>
      <point x="518" y="672"/>
      <point x="350" y="672" type="curve" smooth="yes"/>
      <point x="182" y="672"/>
      <point x="28" y="561"/>
      <point x="28" y="326" type="curve" smooth="yes"/>
      <point x="28" y="91"/>
      <point x="181" y="-20"/>
    </contour>
    <contour>
      <point x="350" y="41" type="curve" smooth="yes"/>
      <point x="265" y="41"/>
      <point x="233" y="154"/>
      <point x="233" y="326" type="curve" smooth="yes"/>
      <point x="233" y="497"/>
      <point x="265" y="612"/>
      <point x="350" y="612" type="curve" smooth="yes"/>
      <point x="435" y="612"/>
      <point x="467" y="497"/>
      <point x="467" y="326" type="curve" smooth="yes"/>
      <point x="467" y="154"/>
      <point x="435" y="41"/>
    </contour>
    <contour>
      <point x="168" y="724" type="curve"/>
      <point x="215" y="704" type="line"/>
      <point x="227" y="735"/>
      <point x="248" y="754"/>
      <point x="276" y="754" type="curve" smooth="yes"/>
      <point x="301" y="754"/>
      <point x="321" y="739"/>
      <point x="342" y="728" type="curve" smooth="yes"/>
      <point x="363" y="717"/>
      <point x="390" y="705"/>
      <point x="417" y="705" type="curve" smooth="yes"/>
      <point x="473" y="705"/>
      <point x="522" y="757"/>
      <point x="533" y="849" type="curve"/>
      <point x="486" y="869" type="line"/>
      <point x="474" y="837"/>
      <point x="452" y="818"/>
      <point x="424" y="818" type="curve" smooth="yes"/>
      <point x="400" y="818"/>
      <point x="380" y="831"/>
      <point x="360" y="843" type="curve" smooth="yes"/>
      <point x="340" y="855"/>
      <point x="316" y="867"/>
      <point x="287" y="867" type="curve" smooth="yes"/>
      <point x="228" y="867"/>
      <point x="179" y="817"/>
    </contour>
  </outline>
</glyph>
<glyph name="Odieresis" format="2">
  <advance width="700"/>
  <unicode hex="00D6"/>
  <anchor x="350" y="860" name="aboveUC"/>
  <anchor x="350" y="-22" name="belowLC"/>
  <anchor x="492" y="669" name="hornLC"/>
  <anchor x="440" y="0" name="ogonek"/>
  <outline>
    <contour>
      <point x="350" y="-20" type="curve" smooth="yes"/>
      <point x="519" y="-20"/>
      <point x="672" y="91"/>
      <point x="672" y="326" type="curve" smooth="yes"/>
      <point x="672" y="561"/>
      <point x="518" y="672"/>
      <point x="350" y="672" type="curve" smooth="yes"/>
      <point x="182" y="672"/>
      <point x="28" y="561"/>
      <point x="28" y="326" type="curve" smooth="yes"/>
      <point x="28" y="91"/>
      <point x="181" y="-20"/>
    </contour>
    <contour>
      <point x="350" y="41" type="curve" smooth="yes"/>
      <point x="265" y="41"/>
      <point x="233" y="154"/>
      <point x="233" y="326" type="curve" smooth="yes"/>
      <point x="233" y="497"/>
      <point x="265" y="612"/>
      <point x="350" y="612" type="curve" smooth="yes"/>
      <point x="435" y="612"/>
      <point x="467" y="497"/>
      <point x="467" y="326" type="curve" smooth="yes"/>
      <point x="467" y="154"/>
      <point x="435" y="41"/>
    </contour>
    <contour>
      <point x="220" y="700" type="curve" smooth="yes"/>
      <point x="263" y="700"/>
      <point x="300" y="727"/>
      <point x="300" y="775" type="curve" smooth="yes"/>
      <point x="300" y="823"/>
      <point x="263" y="850"/>
      <point x="220" y="850" type="curve" smooth="yes"/>
      <point x="179" y="850"/>
      <point x="140" y="823"/>
      <point x="140" y="775" type="curve" smooth="yes"/>
      <point x="140" y="727"/>
      <point x="179" y="700"/>
    </contour>
    <contour>
      <point x="480" y="700" type="curve" smooth="yes"/>
      <point x="523" y="700"/>
      <point x="560" y="727"/>
      <point x="560" y="775" type="curve" smooth="yes"/>
      <point x="560" y="823"/>
      <point x="523" y="850"/>
      <point x="480" y="850" type="curve" smooth="yes"/>
      <point x="439" y="850"/>
      <point x="400" y="823"/>
      <point x="400" y="775" type="curve" smooth="yes"/>
      <point x="400" y="727"/>
      <point x="439" y="700"/>
    </contour>
  </outline>
</glyph>
<glyph name="Ugrave" format="2">
  <advance width="732"/>
  <unicode hex="00D9"/>
  <anchor x="386" y="881" name="aboveUC"/>
  <anchor x="386" y="-22" name="belowLC"/>
  <anchor x="617" y="681" name="hornLC"/>
  <anchor x="455" y="0" name="ogonek"/>
  <outline>
    <contour>
      <point x="95" y="50"/>
      <point x="206" y="-20"/>
      <point x="355" y="-20" type="curve" smooth="yes"/>
      <point x="532" y="-20"/>
      <point x="629" y="74"/>
      <point x="629" y="287" type="curve" smooth="yes"/>
      <point x="629" y="652" type="line"/>
      <point x="558" y="652" type="line"/>
      <point x="558" y="277" type="line" smooth="yes"/>
      <point x="558" y="137"/>
      <point x="506" y="79"/>
      <point x="426" y="79" type="curve" smooth="yes"/>
      <point x="334" y="79"/>
      <point x="293" y="134"/>
      <point x="293" y="280" type="curve" smooth="yes"/>
      <point x="293" y="356" type="line" smooth="yes"/>
      <point x="293" y="455"/>
      <point x="293" y="555"/>
      <point x="296" y="652" type="curve"/>
      <point x="92" y="652" type="line"/>
      <point x="95" y="553"/>
      <point x="95" y="453"/>
      <point x="95" y="356" type="curve" smooth="yes"/>
      <point x="95" y="247" type="line" smooth="yes"/>
    </contour>
    <contour>
      <point x="25" y="593" type="line"/>
      <point x="181" y="578" type="line"/>
      <point x="213" y="578" type="line"/>
      <point x="369" y="593" type="line"/>
      <point x="369" y="652" type="line"/>
      <point x="25" y="652" type="line"/>
    </contour>
    <contour>
      <point x="472" y="593" type="line"/>
      <point x="577" y="586" type="line"/>
      <point x="610" y="586" type="line"/>
      <point x="710" y="593" type="line"/>
      <point x="710" y="652" type="line"/>
      <point x="472" y="652" type="line"/>
    </contour>
    <contour>
      <point x="485" y="729" type="line"/>
      <point x="445" y="768"/>
      <point x="404" y="806"/>
      <point x="367" y="841" type="curve" smooth="yes"/>
      <point x="334" y="872"/>
      <point x="314" y="881"/>
      <point x="288" y="881" type="curve" smooth="yes"/>
      <point x="252" y="881"/>
      <point x="227" y="851"/>
      <point x="227" y="823" type="curve" smooth="yes"/>
      <point x="227" y="804"/>
      <point x="235" y="774"/>
      <point x="288" y="752" type="curve" smooth="yes"/>
      <point x="345" y="728"/>
      <point x="400" y="706"/>
      <point x="454" y="684" type="curve"/>
    </contour>
  </outline>
</glyph>
<glyph name="Uacute" format="2">
  <advance width="732"/>
  <unicode hex="00DA"/>
  <anchor x="416" y="881" name="aboveUC"/>
  <anchor x="386" y="-22" name="belowLC"/>
  <anchor x="617" y="681" name="hornLC"/>
  <anchor x="455" y="0" name="ogonek"/>
  <outline>
    <contour>
      <point x="95" y="50"/>
      <point x="206" y="-20"/>
      <point x="355" y="-20" type="curve" smooth="yes"/>
      <point x="532" y="-20"/>
      <point x="629" y="74"/>
      <point x="629" y="287" type="curve" smooth="yes"/>
      <point x="629" y="652" type="line"/>
      <point x="558" y="652" type="line"/>
      <point x="558" y="277" type="line" smooth="yes"/>
      <point x="558" y="137"/>
      <point x="506" y="79"/>
      <point x="426" y="79" type="curve" smooth="yes"/>
      <point x="334" y="79"/>
      <point x="293" y="134"/>
      <point x="293" y="280" type="curve" smooth="yes"/>
      <point x="293" y="356" type="line" smooth="yes"/>
      <point x="293" y="455"/>
      <point x="293" y="555"/>
      <point x="296" y="652" type="curve"/>
      <point x="92" y="652" type="line"/>
      <point x="95" y="553"/>
      <point x="95" y="453"/>
      <point x="95" y="356" type="curve" smooth="yes"/>
      <point x="95" y="247" type="line" smooth="yes"/>
    </contour>
    <contour>
      <point x="25" y="593" type="line"/>
      <point x="181" y="578" type="line"/>
      <point x="213" y="578" type="line"/>
      <point x="369" y="593" type="line"/>
      <point x="369" y="652" type="line"/>
      <point x="25" y="652" type="line"/>
    </contour>
    <contour>
      <point x="472" y="593" type="line"/>
      <point x="577" y="586" type="line"/>
      <point x="610" y="586" type="line"/>
      <point x="710" y="593" type="line"/>
      <point x="710" y="652" type="line"/>
      <point x="472" y="652" type="line"/>
    </contour>
    <contour>
      <point x="317" y="729" type="curve"/>
      <point x="348" y="684" type="line"/>
      <point x="404" y="708"/>
      <point x="459" y="730"/>
      <point x="516" y="754" type="curve" smooth="yes"/>
      <point x="567" y="775"/>
      <point x="575" y="804"/>
      <point x="575" y="823" type="curve" smooth="yes"/>
      <point x="575" y="851"/>
      <point x="550" y="881"/>
      <point x="514" y="881" type="curve" smooth="yes"/>
      <point x="488" y="881"/>
      <point x="468" y="872"/>
      <point x="434" y="840" type="curve" smooth="yes"/>
      <point x="397" y="805"/>
      <point x="356" y="767"/>
    </contour>
  </outline>
</glyph>
<glyph name="Ucircumflex" format="2">
  <advance width="732"/>
  <unicode hex="00DB"/>
  <anchor x="416" y="892" name="aboveUC"/>
  <anchor x="386" y="-22" name="belowLC"/>
  <anchor x="617" y="681" name="hornLC"/>
  <anchor x="455" y="0" name="ogonek"/>
  <outline>
    <contour>
      <point x="95" y="50"/>
      <point x="206" y="-20"/>
      <point x="355" y="-20" type="curve" smooth="yes"/>
      <point x="532" y="-20"/>
      <point x="629" y="74"/>
      <point x="629" y="287" type="curve" smooth="yes"/>
      <point x="629" y="652" type="line"/>
      <point x="558" y="652" type="line"/>
      <point x="558" y="277" type="line" smooth="yes"/>
      <point x="558" y="137"/>
      <point x="506" y="79"/>
      <point x="426" y="79" type="curve" smooth="yes"/>
      <point x="334" y="79"/>
      <point x="293" y="134"/>
      <point x="293" y="280" type="curve" smooth="yes"/>
      <point x="293" y="356" type="line" smooth="yes"/>
      <point x="293" y="455"/>
      <point x="293" y="555"/>
      <point x="296" y="652" type="curve"/>
      <point x="92" y="652" type="line"/>
      <point x="95" y="553"/>
      <point x="95" y="453"/>
      <point x="95" y="356" type="curve" smooth="yes"/>
      <point x="95" y="247" type="line" smooth="yes"/>
    </contour>
    <contour>
      <point x="25" y="593" type="line"/>
      <point x="181" y="578" type="line"/>
      <point x="213" y="578" type="line"/>
      <point x="369" y="593" type="line"/>
      <point x="369" y="652" type="line"/>
      <point x="25" y="652" type="line"/>
    </contour>
    <contour>
      <point x="472" y="593" type="line"/>
      <point x="577" y="586" type="line"/>
      <point x="610" y="586" type="line"/>
      <point x="710" y="593" type="line"/>
      <point x="710" y="652" type="line"/>
      <point x="472" y="652" type="line"/>
    </contour>
    <contour>
      <point x="457" y="882" type="line"/>
      <point x="375" y="882" type="line"/>
      <point x="218" y="715" type="line"/>
      <point x="252" y="675" type="line"/>
      <point x="466" y="792" type="line"/>
      <point x="366" y="792" type="line"/>
      <point x="580" y="675" type="line"/>
      <point x="614" y="715" type="line"/>
    </contour>
  </outline>
</glyph>
<glyph name="Udieresis" format="2">
  <advance width="732"/>
  <unicode hex="00DC"/>
  <anchor x="411" y="860" name="aboveUC"/>
  <anchor x="386" y="-22" name="belowLC"/>
  <anchor x="617" y="681" name="hornLC"/>
  <anchor x="455" y="0" name="ogonek"/>
  <outline>
    <contour>
      <point x="95" y="50"/>
      <point x="206" y="-20"/>
      <point x="355" y="-20" type="curve" smooth="yes"/>
      <point x="532" y="-20"/>
      <point x="629" y="74"/>
      <point x="629" y="287" type="curve" smooth="yes"/>
      <point x="629" y="652" type="line"/>
      <point x="558" y="652" type="line"/>
      <point x="558" y="277" type="line" smooth="yes"/>
      <point x="558" y="137"/>
      <point x="506" y="79"/>
      <point x="426" y="79" type="curve" smooth="yes"/>
      <point x="334" y="79"/>
      <point x="293" y="134"/>
      <point x="293" y="280" type="curve" smooth="yes"/>
      <point x="293" y="356" type="line" smooth="yes"/>
      <point x="293" y="455"/>
      <point x="293" y="555"/>
      <point x="296" y="652" type="curve"/>
      <point x="92" y="652" type="line"/>
      <point x="95" y="553"/>
      <point x="95" y="453"/>
      <point x="95" y="356" type="curve" smooth="yes"/>
      <point x="95" y="247" type="line" smooth="yes"/>
    </contour>
    <contour>
      <point x="25" y="593" type="line"/>
      <point x="181" y="578" type="line"/>
      <point x="213" y="578" type="line"/>
      <point x="369" y="593" type="line"/>
      <point x="369" y="652" type="line"/>
      <point x="25" y="652" type="line"/>
    </contour>
    <contour>
      <point x="472" y="593" type="line"/>
      <point x="577" y="586" type="line"/>
      <point x="610" y="586" type="line"/>
      <point x="710" y="593" type="line"/>
      <point x="710" y="652" type="line"/>
      <point x="472" y="652" type="line"/>
    </contour>
    <contour>
      <point x="281" y="700" type="curve" smooth="yes"/>
      <point x="324" y="700"/>
      <point x="361" y="727"/>
      <point x="361" y="775" type="curve" smooth="yes"/>
      <point x="361" y="823"/>
      <point x="324" y="850"/>
      <point x="281" y="850" type="curve" smooth="yes"/>
      <point x="240" y="850"/>
      <point x="201" y="823"/>
      <point x="201" y="775" type="curve" smooth="yes"/>
      <point x="201" y="727"/>
      <point x="240" y="700"/>
    </contour>
    <contour>
      <point x="541" y="700" type="curve" smooth="yes"/>
      <point x="584" y="700"/>
      <point x="621" y="727"/>
      <point x="621" y="775" type="curve" smooth="yes"/>
      <point x="621" y="823"/>
      <point x="584" y="850"/>
      <point x="541" y="850" type="curve" smooth="yes"/>
      <point x="500" y="850"/>
      <point x="461" y="823"/>
      <point x="461" y="775" type="curve" smooth="yes"/>
      <point x="461" y="727"/>
      <point x="500" y="700"/>
    </contour>
  </outline>
</glyph>
<glyph name="Yacute" format="2">
  <advance width="621"/>
  <unicode hex="00DD"/>
  <anchor x="393" y="881" name="aboveUC"/>
  <anchor x="310" y="-22" name="belowLC"/>
  <outline>
    <contour>
      <point x="134" y="0" type="line"/>
      <point x="493" y="0" type="line"/>
      <point x="493" y="59" type="line"/>
      <point x="338" y="74" type="line"/>
      <point x="285" y="74" type="line"/>
      <point x="134" y="59" type="line"/>
    </contour>
    <contour>
      <point x="211" y="0" type="curve"/>
      <point x="415" y="0" type="line"/>
      <point x="412" y="93"/>
      <point x="412" y="148"/>
      <point x="412" y="313" type="curve"/>
      <point x="214" y="313" type="line"/>
      <point x="214" y="146"/>
      <point x="214" y="91"/>
    </contour>
    <contour>
      <point x="236" y="211" type="line"/>
      <point x="371" y="211" type="line"/>
      <point x="590" y="652" type="line"/>
      <point x="516" y="652" type="line"/>
      <point x="363" y="316" type="line"/>
      <point x="393" y="322" type="line"/>
      <point x="247" y="652" type="line"/>
      <point x="21" y="652" type="line"/>
    </contour>
    <contour>
      <point x="5" y="593" type="line"/>
      <point x="165" y="578" type="line"/>
      <point x="218" y="578" type="line"/>
      <point x="344" y="593" type="line"/>
      <point x="344" y="652" type="line"/>
      <point x="5" y="652" type="line"/>
    </contour>
    <contour>
      <point x="423" y="593" type="line"/>
      <point x="511" y="578" type="line"/>
      <point x="536" y="578" type="line"/>
      <point x="621" y="593" type="line"/>
      <point x="621" y="652" type="line"/>
      <point x="423" y="652" type="line"/>
    </contour>
    <contour>
      <point x="294" y="729" type="curve"/>
      <point x="325" y="684" type="line"/>
      <point x="381" y="708"/>
      <point x="436" y="730"/>
      <point x="493" y="754" type="curve" smooth="yes"/>
      <point x="544" y="775"/>
      <point x="552" y="804"/>
      <point x="552" y="823" type="curve" smooth="yes"/>
      <point x="552" y="851"/>
      <point x="527" y="881"/>
      <point x="491" y="881" type="curve" smooth="yes"/>
      <point x="465" y="881"/>
      <point x="445" y="872"/>
      <point x="411" y="840" type="curve" smooth="yes"/>
      <point x="374" y="805"/>
      <point x="333" y="767"/>
    </contour>
  </outline>
</glyph>
<glyph name="ccedilla" format="2">
  <advance width="523"/>
  <unicode hex="00E7"/>
  <anchor x="293" y="520" name="aboveLC"/>
  <anchor x="286" y="0" name="baseLC"/>
  <anchor x="286" y="-22" name="belowLC"/>
  <outline>
    <contour>
      <point x="22" y="68"/>
      <point x="145" y="-16"/>
      <point x="281" y="-16" type="curve" smooth="yes"/>
      <point x="376" y="-16"/>
      <point x="451" y="20"/>
      <point x="494" y="101" type="curve"/>
      <point x="455" y="139" type="line"/>
      <point x="427" y="112"/>
      <point x="397" y="92"/>
      <point x="353" y="92" type="curve" smooth="yes"/>
      <point x="273" y="92"/>
      <point x="222" y="153"/>
      <point x="222" y="264" type="curve" smooth="yes"/>
      <point x="222" y="402"/>
      <point x="285" y="449"/>
      <point x="331" y="449" type="curve" smooth="yes"/>
      <point x="364" y="449"/>
      <point x="387" y="442"/>
      <point x="417" y="429" type="curve"/>
      <point x="334" y="472" type="line"/>
      <point x="337" y="407" type="line" smooth="yes"/>
      <point x="341" y="319"/>
      <point x="381" y="293"/>
      <point x="423" y="293" type="curve" smooth="yes"/>
      <point x="463" y="293"/>
      <point x="486" y="311"/>
      <point x="499" y="351" type="curve"/>
      <point x="494" y="433"/>
      <point x="420" y="503"/>
      <point x="308" y="503" type="curve" smooth="yes"/>
      <point x="147" y="503"/>
      <point x="22" y="408"/>
      <point x="22" y="242" type="curve" smooth="yes"/>
    </contour>
    <contour>
      <point x="229" y="-90" type="line"/>
      <point x="268" y="-92"/>
      <point x="289" y="-106"/>
      <point x="289" y="-135" type="curve" smooth="yes"/>
      <point x="289" y="-156"/>
      <point x="274" y="-170"/>
      <point x="239" y="-170" type="curve" smooth="yes"/>
      <point x="221" y="-170"/>
      <point x="204" y="-167"/>
      <point x="184" y="-160" type="curve"/>
      <point x="172" y="-212" type="line"/>
      <point x="198" y="-222"/>
      <point x="222" y="-227"/>
      <point x="256" y="-227" type="curve" smooth="yes"/>
      <point x="352" y="-227"/>
      <point x="400" y="-188"/>
      <point x="400" y="-135" type="curve" smooth="yes"/>
      <point x="400" y="-92"/>
      <point x="367" y="-53"/>
      <point x="258" y="-43" type="curve"/>
      <point x="293" y="-71" type="line"/>
      <point x="302" y="5" type="line"/>
      <point x="244" y="5" type="line"/>
    </contour>
  </outline>
</glyph>
<glyph name="edieresis" format="2">
  <advance width="526"/>
  <unicode hex="00EB"/>
  <anchor x="288" y="730" name="aboveLC"/>
  <anchor x="293" y="-22" name="belowLC"/>
  <anchor x="369" y="0" name="ogonek"/>
  <outline>
    <contour>
      <point x="22" y="80"/>
      <point x="132" y="-16"/>
      <point x="282" y="-16" type="curve" smooth="yes"/>
      <point x="381" y="-16"/>
      <point x="456" y="20"/>
      <point x="499" y="101" type="curve"/>
      <point x="460" y="139" type="line"/>
      <point x="432" y="112"/>
      <point x="396" y="92"/>
      <point x="346" y="92" type="curve" smooth="yes"/>
      <point x="281" y="92"/>
      <point x="222" y="142"/>
      <point x="222" y="262" type="curve" smooth="yes"/>
      <point x="222" y="407"/>
      <point x="246" y="449"/>
      <point x="279" y="449" type="curve" smooth="yes"/>
      <point x="305" y="449"/>
      <point x="330" y="424"/>
      <point x="330" y="355" type="curve" smooth="yes"/>
      <point x="330" y="304"/>
      <point x="317" y="288"/>
      <point x="269" y="288" type="curve" smooth="yes"/>
      <point x="101" y="288" type="line"/>
      <point x="101" y="231" type="line"/>
      <point x="501" y="231" type="line"/>
      <point x="505" y="249"/>
      <point x="506" y="263"/>
      <point x="506" y="284" type="curve" smooth="yes"/>
      <point x="506" y="405"/>
      <point x="434" y="503"/>
      <point x="291" y="503" type="curve" smooth="yes"/>
      <point x="160" y="503"/>
      <point x="22" y="417"/>
      <point x="22" y="245" type="curve" smooth="yes"/>
    </contour>
    <contour>
      <point x="162" y="567" type="curve" smooth="yes"/>
      <point x="207" y="567"/>
      <point x="246" y="595"/>
      <point x="246" y="646" type="curve" smooth="yes"/>
      <point x="246" y="696"/>
      <point x="207" y="725"/>
      <point x="162" y="725" type="curve" smooth="yes"/>
      <point x="119" y="725"/>
      <point x="78" y="696"/>
      <point x="78" y="646" type="curve" smooth="yes"/>
      <point x="78" y="595"/>
      <point x="119" y="567"/>
    </contour>
    <contour>
      <point x="414" y="567" type="curve" smooth="yes"/>
      <point x="459" y="567"/>
      <point x="498" y="595"/>
      <point x="498" y="646" type="curve" smooth="yes"/>
      <point x="498" y="696"/>
      <point x="459" y="725"/>
      <point x="414" y="725" type="curve" smooth="yes"/>
      <point x="371" y="725"/>
      <point x="330" y="696"/>
      <point x="330" y="646" type="curve" smooth="yes"/>
      <point x="330" y="595"/>
      <point x="371" y="567"/>
    </contour>
  </outline>
</glyph>
<glyph name="igrave" format="2">
  <advance width="324"/>
  <unicode hex="00EC"/>
  <anchor x="162" y="764" name="aboveLC"/>
  <anchor x="173" y="-22" name="belowLC"/>
  <anchor x="203" y="0" name="ogonek"/>
  <outline>
    <contour>
      <point x="71" y="0" type="curve"/>
      <point x="267" y="0" type="line"/>
      <point x="265" y="45"/>
      <point x="264" y="148"/>
      <point x="264" y="210" type="curve" smooth="yes"/>
      <point x="264" y="343" type="line"/>
      <point x="267" y="492" type="line"/>
      <point x="249" y="503" type="line"/>
      <point x="17" y="434" type="line"/>
      <point x="17" y="393" type="line"/>
      <point x="71" y="384" type="line"/>
      <point x="73" y="344"/>
      <point x="74" y="313"/>
      <point x="74" y="258" type="curve" smooth="yes"/>
      <point x="74" y="210" type="line" smooth="yes"/>
      <point x="74" y="148"/>
      <point x="73" y="45"/>
    </contour>
    <contour>
      <point x="28" y="0" type="line"/>
      <point x="307" y="0" type="line"/>
      <point x="307" y="51" type="line"/>
      <point x="211" y="71" type="line"/>
      <point x="114" y="71" type="line"/>
      <point x="28" y="51" type="line"/>
    </contour>
    <contour>
      <point x="231" y="587" type="line"/>
      <point x="218" y="612"/>
      <point x="203" y="636"/>
      <point x="156" y="713" type="curve" smooth="yes"/>
      <point x="126" y="762"/>
      <point x="107" y="784"/>
      <point x="68" y="784" type="curve" smooth="yes"/>
      <point x="38" y="784"/>
      <point x="7" y="760"/>
      <point x="7" y="721" type="curve" smooth="yes"/>
      <point x="7" y="685"/>
      <point x="38" y="657"/>
      <point x="82" y="626" type="curve" smooth="yes"/>
      <point x="148" y="579"/>
      <point x="168" y="565"/>
      <point x="188" y="552" type="curve"/>
    </contour>
  </outline>
</glyph>
<glyph name="iacute" format="2">
  <advance width="324"/>
  <unicode hex="00ED"/>
  <anchor x="192" y="784" name="aboveLC"/>
  <anchor x="173" y="-22" name="belowLC"/>
  <anchor x="203" y="0" name="ogonek"/>
  <outline>
    <contour>
      <point x="71" y="0" type="curve"/>
      <point x="267" y="0" type="line"/>
      <point x="265" y="45"/>
      <point x="264" y="148"/>
      <point x="264" y="210" type="curve" smooth="yes"/>
      <point x="264" y="343" type="line"/>
      <point x="267" y="492" type="line"/>
      <point x="249" y="503" type="line"/>
      <point x="17" y="434" type="line"/>
      <point x="17" y="393" type="line"/>
      <point x="71" y="384" type="line"/>
      <point x="73" y="344"/>
      <point x="74" y="313"/>
      <point x="74" y="258" type="curve" smooth="yes"/>
      <point x="74" y="210" type="line" smooth="yes"/>
      <point x="74" y="148"/>
      <point x="73" y="45"/>
    </contour>
    <contour>
      <point x="28" y="0" type="line"/>
      <point x="307" y="0" type="line"/>
      <point x="307" y="51" type="line"/>
      <point x="211" y="71" type="line"/>
      <point x="114" y="71" type="line"/>
      <point x="28" y="51" type="line"/>
    </contour>
    <contour>
      <point x="113" y="587" type="curve"/>
      <point x="156" y="552" type="line"/>
      <point x="176" y="565"/>
      <point x="196" y="579"/>
      <point x="262" y="625" type="curve" smooth="yes"/>
      <point x="306" y="656"/>
      <point x="337" y="685"/>
      <point x="337" y="721" type="curve" smooth="yes"/>
      <point x="337" y="760"/>
      <point x="306" y="784"/>
      <point x="276" y="784" type="curve" smooth="yes"/>
      <point x="237" y="784"/>
      <point x="217" y="762"/>
      <point x="187" y="712" type="curve" smooth="yes"/>
      <point x="140" y="634"/>
      <point x="126" y="611"/>
    </contour>
  </outline>
</glyph>
<glyph name="icircumflex" format="2">
  <advance width="324"/>
  <unicode hex="00EE"/>
  <anchor x="172" y="768" name="aboveLC"/>
  <anchor x="173" y="-22" name="belowLC"/>
  <anchor x="203" y="0" name="ogonek"/>
  <outline>
    <contour>
      <point x="71" y="0" type="curve"/>
      <point x="267" y="0" type="line"/>
      <point x="265" y="45"/>
      <point x="264" y="148"/>
      <point x="264" y="210" type="curve" smooth="yes"/>
      <point x="264" y="343" type="line"/>
      <point x="267" y="492" type="line"/>
      <point x="249" y="503" type="line"/>
      <point x="17" y="434" type="line"/>
      <point x="17" y="393" type="line"/>
      <point x="71" y="384" type="line"/>
      <point x="73" y="344"/>
      <point x="74" y="313"/>
      <point x="74" y="258" type="curve" smooth="yes"/>
      <point x="74" y="210" type="line" smooth="yes"/>
      <point x="74" y="148"/>
      <point x="73" y="45"/>
    </contour>
    <contour>
      <point x="28" y="0" type="line"/>
      <point x="307" y="0" type="line"/>
      <point x="307" y="51" type="line"/>
      <point x="211" y="71" type="line"/>
      <point x="114" y="71" type="line"/>
      <point x="28" y="51" type="line"/>
    </contour>
    <contour>
      <point x="310" y="544" type="line"/>
      <point x="350" y="582" type="line"/>
      <point x="210" y="757" type="line"/>
      <point x="134" y="757" type="line"/>
      <point x="-6" y="582" type="line"/>
      <point x="34" y="544" type="line"/>
      <point x="222" y="679" type="line"/>
      <point x="122" y="679" type="line"/>
    </contour>
  </outline>
</glyph>
<glyph name="ntilde" format="2">
  <advance width="620"/>
  <unicode hex="00F1"/>
  <anchor x="310" y="744" name="aboveLC"/>
  <anchor x="320" y="-22" name="belowLC"/>
  <outline>
    <contour>
      <point x="367" y="0" type="curve"/>
      <point x="563" y="0" type="line"/>
      <point x="561" y="45"/>
      <point x="560" y="146"/>
      <point x="560" y="210" type="curve" smooth="yes"/>
      <point x="560" y="336" type="line" smooth="yes"/>
      <point x="560" y="445"/>
      <point x="496" y="503"/>
      <point x="409" y="503" type="curve" smooth="yes"/>
      <point x="346" y="503"/>
      <point x="301" y="483"/>
      <point x="238" y="399" type="curve"/>
      <point x="210" y="399" type="line"/>
      <point x="210" y="321" type="line"/>
      <point x="244" y="367"/>
      <point x="295" y="396"/>
      <point x="325" y="396" type="curve" smooth="yes"/>
      <point x="357" y="396"/>
      <point x="370" y="376"/>
      <point x="370" y="323" type="curve" smooth="yes"/>
      <point x="370" y="210" type="line" smooth="yes"/>
      <point x="370" y="146"/>
      <point x="369" y="45"/>
    </contour>
    <contour>
      <point x="23" y="0" type="line"/>
      <point x="299" y="0" type="line"/>
      <point x="299" y="51" type="line"/>
      <point x="207" y="71" type="line"/>
      <point x="109" y="71" type="line"/>
      <point x="23" y="51" type="line"/>
    </contour>
    <contour>
      <point x="67" y="0" type="curve"/>
      <point x="263" y="0" type="line"/>
      <point x="261" y="45"/>
      <point x="260" y="148"/>
      <point x="260" y="210" type="curve" smooth="yes"/>
      <point x="260" y="383" type="line"/>
      <point x="252" y="492" type="line"/>
      <point x="234" y="503" type="line"/>
      <point x="13" y="434" type="line"/>
      <point x="13" y="393" type="line"/>
      <point x="67" y="384" type="line"/>
      <point x="69" y="344"/>
      <point x="70" y="327"/>
      <point x="70" y="272" type="curve" smooth="yes"/>
      <point x="70" y="210" type="line" smooth="yes"/>
      <point x="70" y="148"/>
      <point x="69" y="45"/>
    </contour>
    <contour>
      <point x="326" y="0" type="line"/>
      <point x="603" y="0" type="line"/>
      <point x="603" y="51" type="line"/>
      <point x="506" y="71" type="line"/>
      <point x="409" y="71" type="line"/>
      <point x="326" y="51" type="line"/>
    </contour>
    <contour>
      <point x="127" y="589" type="curve"/>
      <point x="174" y="569" type="line"/>
      <point x="186" y="600"/>
      <point x="207" y="619"/>
      <point x="235" y="619" type="curve" smooth="yes"/>
      <point x="260" y="619"/>
      <point x="280" y="604"/>
      <point x="299" y="594" type="curve" smooth="yes"/>
      <point x="322" y="582"/>
      <point x="350" y="570"/>
      <point x="377" y="570" type="curve" smooth="yes"/>
      <point x="433" y="570"/>
      <point x="482" y="622"/>
      <point x="493" y="714" type="curve"/>
      <point x="446" y="734" type="line"/>
      <point x="434" y="702"/>
      <point x="412" y="683"/>
      <point x="384" y="683" type="curve" smooth="yes"/>
      <point x="360" y="683"/>
      <point x="342" y="695"/>
      <point x="320" y="708" type="curve" smooth="yes"/>
      <point x="300" y="720"/>
      <point x="275" y="732"/>
      <point x="246" y="732" type="curve" smooth="yes"/>
      <point x="187" y="732"/>
      <point x="138" y="682"/>
    </contour>
  </outline>
</glyph>
<glyph name="ograve" format="2">
  <advance width="572"/>
  <unicode hex="00F2"/>
  <anchor x="276" y="764" name="aboveLC"/>
  <anchor x="283" y="-22" name="belowLC"/>
  <anchor x="419" y="489" name="hornLC"/>
  <anchor x="366" y="0" name="ogonek"/>
  <outline>
    <contour>
      <point x="286" y="-16" type="curve" smooth="yes"/>
      <point x="457" y="-16"/>
      <point x="550" y="95"/>
      <point x="550" y="247" type="curve" smooth="yes"/>
      <point x="550" y="399"/>
      <point x="440" y="503"/>
      <point x="286" y="503" type="curve" smooth="yes"/>
      <point x="132" y="503"/>
      <point x="22" y="396"/>
      <point x="22" y="247" type="curve" smooth="yes"/>
      <point x="22" y="98"/>
      <point x="114" y="-16"/>
    </contour>
    <contour>
      <point x="286" y="39" type="curve" smooth="yes"/>
      <point x="242" y="39"/>
      <point x="222" y="98"/>
      <point x="222" y="244" type="curve" smooth="yes"/>
      <point x="222" y="389"/>
      <point x="242" y="448"/>
      <point x="286" y="448" type="curve" smooth="yes"/>
      <point x="330" y="448"/>
      <point x="350" y="389"/>
      <point x="350" y="244" type="curve" smooth="yes"/>
      <point x="350" y="98"/>
      <point x="330" y="39"/>
    </contour>
    <contour>
      <point x="345" y="587" type="line"/>
      <point x="332" y="612"/>
      <point x="317" y="636"/>
      <point x="270" y="713" type="curve" smooth="yes"/>
      <point x="240" y="762"/>
      <point x="221" y="784"/>
      <point x="182" y="784" type="curve" smooth="yes"/>
      <point x="152" y="784"/>
      <point x="121" y="760"/>
      <point x="121" y="721" type="curve" smooth="yes"/>
      <point x="121" y="685"/>
      <point x="152" y="657"/>
      <point x="196" y="626" type="curve" smooth="yes"/>
      <point x="262" y="579"/>
      <point x="282" y="565"/>
      <point x="302" y="552" type="curve"/>
    </contour>
  </outline>
</glyph>
<glyph name="oacute" format="2">
  <advance width="572"/>
  <unicode hex="00F3"/>
  <anchor x="316" y="784" name="aboveLC"/>
  <anchor x="283" y="-22" name="belowLC"/>
  <anchor x="419" y="489" name="hornLC"/>
  <anchor x="366" y="0" name="ogonek"/>
  <outline>
    <contour>
      <point x="286" y="-16" type="curve" smooth="yes"/>
      <point x="457" y="-16"/>
      <point x="550" y="95"/>
      <point x="550" y="247" type="curve" smooth="yes"/>
      <point x="550" y="399"/>
      <point x="440" y="503"/>
      <point x="286" y="503" type="curve" smooth="yes"/>
      <point x="132" y="503"/>
      <point x="22" y="396"/>
      <point x="22" y="247" type="curve" smooth="yes"/>
      <point x="22" y="98"/>
      <point x="114" y="-16"/>
    </contour>
    <contour>
      <point x="286" y="39" type="curve" smooth="yes"/>
      <point x="242" y="39"/>
      <point x="222" y="98"/>
      <point x="222" y="244" type="curve" smooth="yes"/>
      <point x="222" y="389"/>
      <point x="242" y="448"/>
      <point x="286" y="448" type="curve" smooth="yes"/>
      <point x="330" y="448"/>
      <point x="350" y="389"/>
      <point x="350" y="244" type="curve" smooth="yes"/>
      <point x="350" y="98"/>
      <point x="330" y="39"/>
    </contour>
    <contour>
      <point x="237" y="587" type="curve"/>
      <point x="280" y="552" type="line"/>
      <point x="300" y="565"/>
      <point x="320" y="579"/>
      <point x="386" y="625" type="curve" smooth="yes"/>
      <point x="430" y="656"/>
      <point x="461" y="685"/>
      <point x="461" y="721" type="curve" smooth="yes"/>
      <point x="461" y="760"/>
      <point x="430" y="784"/>
      <point x="400" y="784" type="curve" smooth="yes"/>
      <point x="361" y="784"/>
      <point x="341" y="762"/>
      <point x="311" y="712" type="curve" smooth="yes"/>
      <point x="264" y="634"/>
      <point x="250" y="611"/>
    </contour>
  </outline>
</glyph>
<glyph name="otilde" format="2">
  <advance width="572"/>
  <unicode hex="00F5"/>
  <anchor x="286" y="744" name="aboveLC"/>
  <anchor x="283" y="-22" name="belowLC"/>
  <anchor x="419" y="489" name="hornLC"/>
  <anchor x="366" y="0" name="ogonek"/>
  <outline>
    <contour>
      <point x="286" y="-16" type="curve" smooth="yes"/>
      <point x="457" y="-16"/>
      <point x="550" y="95"/>
      <point x="550" y="247" type="curve" smooth="yes"/>
      <point x="550" y="399"/>
      <point x="440" y="503"/>
      <point x="286" y="503" type="curve" smooth="yes"/>
      <point x="132" y="503"/>
      <point x="22" y="396"/>
      <point x="22" y="247" type="curve" smooth="yes"/>
      <point x="22" y="98"/>
      <point x="114" y="-16"/>
    </contour>
    <contour>
      <point x="286" y="39" type="curve" smooth="yes"/>
      <point x="242" y="39"/>
      <point x="222" y="98"/>
      <point x="222" y="244" type="curve" smooth="yes"/>
      <point x="222" y="389"/>
      <point x="242" y="448"/>
      <point x="286" y="448" type="curve" smooth="yes"/>
      <point x="330" y="448"/>
      <point x="350" y="389"/>
      <point x="350" y="244" type="curve" smooth="yes"/>
      <point x="350" y="98"/>
      <point x="330" y="39"/>
    </contour>
    <contour>
      <point x="103" y="589" type="curve"/>
      <point x="150" y="569" type="line"/>
      <point x="162" y="600"/>
      <point x="183" y="619"/>
      <point x="211" y="619" type="curve" smooth="yes"/>
      <point x="236" y="619"/>
      <point x="256" y="604"/>
      <point x="275" y="594" type="curve" smooth="yes"/>
      <point x="298" y="582"/>
      <point x="326" y="570"/>
      <point x="353" y="570" type="curve" smooth="yes"/>
      <point x="409" y="570"/>
      <point x="458" y="622"/>
      <point x="469" y="714" type="curve"/>
      <point x="422" y="734" type="line"/>
      <point x="410" y="702"/>
      <point x="388" y="683"/>
      <point x="360" y="683" type="curve" smooth="yes"/>
      <point x="336" y="683"/>
      <point x="318" y="695"/>
      <point x="296" y="708" type="curve" smooth="yes"/>
      <point x="276" y="720"/>
      <point x="251" y="732"/>
      <point x="222" y="732" type="curve" smooth="yes"/>
      <point x="163" y="732"/>
      <point x="114" y="682"/>
    </contour>
  </outline>
</glyph>
<glyph name="odieresis" format="2">
  <advance width="572"/>
  <unicode hex="00F6"/>
  <anchor x="286" y="730" name="aboveLC"/>
  <anchor x="283" y="-22" name="belowLC"/>
  <anchor x="419" y="489" name="hornLC"/>
  <anchor x="366" y="0" name="ogonek"/>
  <outline>
    <contour>
      <point x="286" y="-16" type="curve" smooth="yes"/>
      <point x="457" y="-16"/>
      <point x="550" y="95"/>
      <point x="550" y="247" type="curve" smooth="yes"/>
      <point x="550" y="399"/>
      <point x="440" y="503"/>
      <point x="286" y="503" type="curve" smooth="yes"/>
      <point x="132" y="503"/>
      <point x="22" y="396"/>
      <point x="22" y="247" type="curve" smooth="yes"/>
      <point x="22" y="98"/>
      <point x="114" y="-16"/>
    </contour>
    <contour>
      <point x="286" y="39" type="curve" smooth="yes"/>
      <point x="242" y="39"/>
      <point x="222" y="98"/>
      <point x="222" y="244" type="curve" smooth="yes"/>
      <point x="222" y="389"/>
      <point x="242" y="448"/>
      <point x="286" y="448" type="curve" smooth="yes"/>
      <point x="330" y="448"/>
      <point x="350" y="389"/>
      <point x="350" y="244" type="curve" smooth="yes"/>
      <point x="350" y="98"/>
      <point x="330" y="39"/>
    </contour>
    <contour>
      <point x="160" y="567" type="curve" smooth="yes"/>
      <point x="205" y="567"/>
      <point x="244" y="595"/>
      <point x="244" y="646" type="curve" smooth="yes"/>
      <point x="244" y="696"/>
      <point x="205" y="725"/>
      <point x="160" y="725" type="curve" smooth="yes"/>
      <point x="117" y="725"/>
      <point x="76" y="696"/>
      <point x="76" y="646" type="curve" smooth="yes"/>
      <point x="76" y="595"/>
      <point x="117" y="567"/>
    </contour>
    <contour>
      <point x="412" y="567" type="curve" smooth="yes"/>
      <point x="457" y="567"/>
      <point x="496" y="595"/>
      <point x="496" y="646" type="curve" smooth="yes"/>
      <point x="496" y="696"/>
      <point x="457" y="725"/>
      <point x="412" y="725" type="curve" smooth="yes"/>
      <point x="369" y="725"/>
      <point x="328" y="696"/>
      <point x="328" y="646" type="curve" smooth="yes"/>
      <point x="328" y="595"/>
      <point x="369" y="567"/>
    </contour>
  </outline>
</glyph>
<glyph name="ugrave" format="2">
  <advance width="617"/>
  <unicode hex="00F9"/>
  <anchor x="308" y="764" name="aboveLC"/>
  <anchor x="316" y="-22" name="belowLC"/>
  <anchor x="546" y="466" name="hornLC"/>
  <anchor x="508" y="0" name="ogonek"/>
  <outline>
    <contour>
      <point x="63" y="32"/>
      <point x="123" y="-16"/>
      <point x="211" y="-16" type="curve" smooth="yes"/>
      <point x="300" y="-16"/>
      <point x="366" y="44"/>
      <point x="410" y="138" type="curve"/>
      <point x="431" y="138" type="line"/>
      <point x="405" y="176" type="line"/>
      <point x="383" y="137"/>
      <point x="336" y="91"/>
      <point x="301" y="91" type="curve" smooth="yes"/>
      <point x="275" y="91"/>
      <point x="257" y="107"/>
      <point x="257" y="159" type="curve" smooth="yes"/>
      <point x="257" y="345" type="line"/>
      <point x="262" y="487" type="line"/>
      <point x="244" y="498" type="line"/>
      <point x="17" y="463" type="line"/>
      <point x="17" y="418" type="line"/>
      <point x="105" y="398" type="line"/>
      <point x="69" y="435" type="line"/>
      <point x="65" y="164" type="line" smooth="yes"/>
    </contour>
    <contour>
      <point x="371" y="-12" type="line"/>
      <point x="603" y="-1" type="line"/>
      <point x="603" y="50" type="line"/>
      <point x="557" y="60" type="line"/>
      <point x="557" y="345" type="line"/>
      <point x="560" y="487" type="line"/>
      <point x="542" y="498" type="line"/>
      <point x="321" y="458" type="line"/>
      <point x="321" y="418" type="line"/>
      <point x="369" y="407" type="line"/>
      <point x="365" y="106" type="line"/>
    </contour>
    <contour>
      <point x="377" y="587" type="line"/>
      <point x="364" y="612"/>
      <point x="349" y="636"/>
      <point x="302" y="713" type="curve" smooth="yes"/>
      <point x="272" y="762"/>
      <point x="253" y="784"/>
      <point x="214" y="784" type="curve" smooth="yes"/>
      <point x="184" y="784"/>
      <point x="153" y="760"/>
      <point x="153" y="721" type="curve" smooth="yes"/>
      <point x="153" y="685"/>
      <point x="184" y="657"/>
      <point x="228" y="626" type="curve" smooth="yes"/>
      <point x="294" y="579"/>
      <point x="314" y="565"/>
      <point x="334" y="552" type="curve"/>
    </contour>
  </outline>
</glyph>
<glyph name="ucircumflex" format="2">
  <advance width="617"/>
  <unicode hex="00FB"/>
  <anchor x="318" y="768" name="aboveLC"/>
  <anchor x="316" y="-22" name="belowLC"/>
  <anchor x="546" y="466" name="hornLC"/>
  <anchor x="508" y="0" name="ogonek"/>
  <outline>
    <contour>
      <point x="63" y="32"/>
      <point x="123" y="-16"/>
      <point x="211" y="-16" type="curve" smooth="yes"/>
      <point x="300" y="-16"/>
      <point x="366" y="44"/>
      <point x="410" y="138" type="curve"/>
      <point x="431" y="138" type="line"/>
      <point x="405" y="176" type="line"/>
      <point x="383" y="137"/>
      <point x="336" y="91"/>
      <point x="301" y="91" type="curve" smooth="yes"/>
      <point x="275" y="91"/>
      <point x="257" y="107"/>
      <point x="257" y="159" type="curve" smooth="yes"/>
      <point x="257" y="345" type="line"/>
      <point x="262" y="487" type="line"/>
      <point x="244" y="498" type="line"/>
      <point x="17" y="463" type="line"/>
      <point x="17" y="418" type="line"/>
      <point x="105" y="398" type="line"/>
      <point x="69" y="435" type="line"/>
      <point x="65" y="164" type="line" smooth="yes"/>
    </contour>
    <contour>
      <point x="371" y="-12" type="line"/>
      <point x="603" y="-1" type="line"/>
      <point x="603" y="50" type="line"/>
      <point x="557" y="60" type="line"/>
      <point x="557" y="345" type="line"/>
      <point x="560" y="487" type="line"/>
      <point x="542" y="498" type="line"/>
      <point x="321" y="458" type="line"/>
      <point x="321" y="418" type="line"/>
      <point x="369" y="407" type="line"/>
      <point x="365" y="106" type="line"/>
    </contour>
    <contour>
      <point x="456" y="544" type="line"/>
      <point x="496" y="582" type="line"/>
      <point x="356" y="757" type="line"/>
      <point x="280" y="757" type="line"/>
      <point x="140" y="582" type="line"/>
      <point x="180" y="544" type="line"/>
      <point x="368" y="679" type="line"/>
      <point x="268" y="679" type="line"/>
    </contour>
  </outline>
</glyph>
<glyph name="udieresis" format="2">
  <advance width="617"/>
  <unicode hex="00FC"/>
  <anchor x="318" y="730" name="aboveLC"/>
  <anchor x="316" y="-22" name="belowLC"/>
  <anchor x="546" y="466" name="hornLC"/>
  <anchor x="508" y="0" name="ogonek"/>
  <outline>
    <contour>
      <point x="63" y="32"/>
      <point x="123" y="-16"/>
      <point x="211" y="-16" type="curve" smooth="yes"/>
      <point x="300" y="-16"/>
      <point x="366" y="44"/>
      <point x="410" y="138" type="curve"/>
      <point x="431" y="138" type="line"/>
      <point x="405" y="176" type="line"/>
      <point x="383" y="137"/>
      <point x="336" y="91"/>
      <point x="301" y="91" type="curve" smooth="yes"/>
      <point x="275" y="91"/>
      <point x="257" y="107"/>
      <point x="257" y="159" type="curve" smooth="yes"/>
      <point x="257" y="345" type="line"/>
      <point x="262" y="487" type="line"/>
      <point x="244" y="498" type="line"/>
      <point x="17" y="463" type="line"/>
      <point x="17" y="418" type="line"/>
      <point x="105" y="398" type="line"/>
      <point x="69" y="435" type="line"/>
      <point x="65" y="164" type="line" smooth="yes"/>
    </contour>
    <contour>
      <point x="371" y="-12" type="line"/>
      <point x="603" y="-1" type="line"/>
      <point x="603" y="50" type="line"/>
      <point x="557" y="60" type="line"/>
      <point x="557" y="345" type="line"/>
      <point x="560" y="487" type="line"/>
      <point x="542" y="498" type="line"/>
      <point x="321" y="458" type="line"/>
      <point x="321" y="418" type="line"/>
      <point x="369" y="407" type="line"/>
      <point x="365" y="106" type="line"/>
    </contour>
    <contour>
      <point x="192" y="567" type="curve" smooth="yes"/>
      <point x="237" y="567"/>
      <point x="276" y="595"/>
      <point x="276" y="646" type="curve" smooth="yes"/>
      <point x="276" y="696"/>
      <point x="237" y="725"/>
      <point x="192" y="725" type="curve" smooth="yes"/>
      <point x="149" y="725"/>
      <point x="108" y="696"/>
      <point x="108" y="646" type="curve" smooth="yes"/>
      <point x="108" y="595"/>
      <point x="149" y="567"/>
    </contour>
    <contour>
      <point x="444" y="567" type="curve" smooth="yes"/>
      <point x="489" y="567"/>
      <point x="528" y="595"/>
      <point x="528" y="646" type="curve" smooth="yes"/>
      <point x="528" y="696"/>
      <point x="489" y="725"/>
      <point x="444" y="725" type="curve" smooth="yes"/>
      <point x="401" y="725"/>
      <point x="360" y="696"/>
      <point x="360" y="646" type="curve" smooth="yes"/>
      <point x="360" y="595"/>
      <point x="401" y="567"/>
    </contour>
  </outline>
</glyph>
<glyph name="Tbar" format="2">
  <advance width="646"/>
  <unicode hex="0166"/>
  <outline>
    <contour>
      <point x="65" y="277" type="line"/>
      <point x="581" y="277" type="line"/>
      <point x="581" y="340" type="line"/>
      <point x="65" y="340" type="line"/>
    </contour>
    <component base="T"/>
  </outline>
</glyph>
<glyph name="zcaron" format="2">
  <advance width="468"/>
  <unicode hex="017E"/>
  <anchor x="274" y="769" name="aboveLC"/>
  <anchor x="246" y="-22" name="belowLC"/>
  <outline>
    <contour>
      <point x="14" y="0" type="line"/>
      <point x="448" y="0" type="line"/>
      <point x="458" y="169" type="line"/>
      <point x="365" y="169" type="line"/>
      <point x="329" y="19" type="line"/>
      <point x="366" y="48" type="line"/>
      <point x="196" y="48" type="line"/>
      <point x="211" y="22" type="line"/>
      <point x="450" y="447" type="line"/>
      <point x="450" y="487" type="line"/>
      <point x="28" y="487" type="line"/>
      <point x="20" y="333" type="line"/>
      <point x="112" y="329" type="line"/>
      <point x="146" y="469" type="line"/>
      <point x="109" y="440" type="line"/>
      <point x="279" y="440" type="line"/>
      <point x="264" y="466" type="line"/>
      <point x="14" y="41" type="line"/>
    </contour>
    <contour>
      <point x="147" y="779" type="line"/>
      <point x="103" y="742" type="line"/>
      <point x="229" y="563" type="line"/>
      <point x="319" y="563" type="line"/>
      <point x="445" y="742" type="line"/>
      <point x="401" y="779" type="line"/>
      <point x="230" y="640" type="line"/>
      <point x="318" y="640" type="line"/>
    </contour>
  </outline>
</glyph>
<glyph name="circumflex" format="2">
  <advance width="376"/>
  <unicode hex="02C6"/>
  <anchor x="188" y="520" name="_aboveLC"/>
  <anchor x="188" y="768" name="aboveLC"/>
  <outline>
    <contour>
      <point x="326" y="544" type="line"/>
      <point x="366" y="582" type="line"/>
      <point x="226" y="757" type="line"/>
      <point x="150" y="757" type="line"/>
      <point x="10" y="582" type="line"/>
      <point x="50" y="544" type="line"/>
      <point x="238" y="679" type="line"/>
      <point x="138" y="679" type="line"/>
    </contour>
  </outline>
</glyph>
<glyph name="caron" format="2">
  <advance width="400"/>
  <unicode hex="02C7"/>
  <anchor x="200" y="520" name="_aboveLC"/>
  <anchor x="200" y="769" name="aboveLC"/>
  <outline>
    <contour>
      <point x="73" y="779" type="line"/>
      <point x="29" y="742" type="line"/>
      <point x="155" y="563" type="line"/>
      <point x="245" y="563" type="line"/>
      <point x="371" y="742" type="line"/>
      <point x="327" y="779" type="line"/>
      <point x="156" y="640" type="line"/>
      <point x="244" y="640" type="line"/>
    </contour>
  </outline>
</glyph>
<glyph name="breve" format="2">
  <advance width="400"/>
  <unicode hex="02D8"/>
  <anchor x="200" y="520" name="_aboveLC"/>
  <anchor x="200" y="738" name="aboveLC"/>
  <outline>
    <contour>
      <point x="34" y="722" type="line"/>
      <point x="38" y="657"/>
      <point x="76" y="563"/>
      <point x="200" y="563" type="curve" smooth="yes"/>
      <point x="324" y="563"/>
      <point x="362" y="657"/>
      <point x="366" y="722" type="curve"/>
      <point x="310" y="738" type="line"/>
      <point x="291" y="692"/>
      <point x="254" y="653"/>
      <point x="200" y="653" type="curve" smooth="yes"/>
      <point x="146" y="653"/>
      <point x="111" y="690"/>
      <point x="90" y="738" type="curve"/>
    </contour>
  </outline>
</glyph>
<glyph name="dotaccent" format="2">
  <advance width="400"/>
  <unicode hex="02D9"/>
  <anchor x="200" y="520" name="_aboveLC"/>
  <anchor x="200" y="740" name="aboveLC"/>
  <outline>
    <contour>
      <point x="200" y="562" type="curve" smooth="yes"/>
      <point x="251" y="562"/>
      <point x="292" y="598"/>
      <point x="292" y="648" type="curve" smooth="yes"/>
      <point x="292" y="698"/>
      <point x="251" y="734"/>
      <point x="200" y="734" type="curve" smooth="yes"/>
      <point x="149" y="734"/>
      <point x="108" y="698"/>
      <point x="108" y="648" type="curve" smooth="yes"/>
      <point x="108" y="598"/>
      <point x="149" y="562"/>
    </contour>
  </outline>
</glyph>
<glyph name="ring" format="2">
  <advance width="400"/>
  <unicode hex="02DA"/>
  <anchor x="200" y="520" name="_aboveLC"/>
  <anchor x="200" y="804" name="aboveLC"/>
  <outline>
    <contour>
      <point x="200" y="610" type="curve" smooth="yes"/>
      <point x="161" y="610"/>
      <point x="140" y="643"/>
      <point x="140" y="674" type="curve" smooth="yes"/>
      <point x="140" y="707"/>
      <point x="161" y="738"/>
      <point x="200" y="738" type="curve" smooth="yes"/>
      <point x="239" y="738"/>
      <point x="260" y="707"/>
      <point x="260" y="674" type="curve" smooth="yes"/>
      <point x="260" y="643"/>
      <point x="239" y="610"/>
    </contour>
    <contour>
      <point x="200" y="554" type="curve" smooth="yes"/>
      <point x="272" y="554"/>
      <point x="327" y="598"/>
      <point x="327" y="674" type="curve" smooth="yes"/>
      <point x="327" y="750"/>
      <point x="272" y="794"/>
      <point x="200" y="794" type="curve" smooth="yes"/>
      <point x="128" y="794"/>
      <point x="73" y="747"/>
      <point x="73" y="674" type="curve" smooth="yes"/>
      <point x="73" y="601"/>
      <point x="128" y="554"/>
    </contour>
  </outline>
</glyph>
<glyph name="tilde" format="2">
  <advance width="400"/>
  <unicode hex="02DC"/>
  <anchor x="202" y="520" name="_aboveLC"/>
  <anchor x="202" y="744" name="aboveLC"/>
  <outline>
    <contour>
      <point x="19" y="589" type="curve"/>
      <point x="66" y="569" type="line"/>
      <point x="78" y="600"/>
      <point x="99" y="619"/>
      <point x="127" y="619" type="curve" smooth="yes"/>
      <point x="152" y="619"/>
      <point x="172" y="604"/>
      <point x="191" y="594" type="curve" smooth="yes"/>
      <point x="214" y="582"/>
      <point x="242" y="570"/>
      <point x="269" y="570" type="curve" smooth="yes"/>
      <point x="325" y="570"/>
      <point x="374" y="622"/>
      <point x="385" y="714" type="curve"/>
      <point x="338" y="734" type="line"/>
      <point x="326" y="702"/>
      <point x="304" y="683"/>
      <point x="276" y="683" type="curve" smooth="yes"/>
      <point x="252" y="683"/>
      <point x="234" y="695"/>
      <point x="212" y="708" type="curve" smooth="yes"/>
      <point x="192" y="720"/>
      <point x="167" y="732"/>
      <point x="138" y="732" type="curve" smooth="yes"/>
      <point x="79" y="732"/>
      <point x="30" y="682"/>
    </contour>
  </outline>
</glyph>
<glyph name="Ghestroke" format="2">
  <advance width="580"/>
  <unicode hex="0492"/>
  <outline>
    <contour>
      <point x="28" y="304" type="line"/>
      <point x="410" y="304" type="line"/>
      <point x="410" y="367" type="line"/>
      <point x="28" y="367" type="line"/>
    </contour>
    <component base="Ghe"/>
  </outline>
</glyph>
<glyph name="Ustraightstroke" format="2">
  <advance width="621"/>
  <unicode hex="04B0"/>
  <anchor x="357" y="682" name="aboveUC"/>
  <outline>
    <contour>
      <point x="537" y="231" type="line"/>
      <point x="537" y="294" type="line"/>
      <point x="75" y="294" type="line"/>
      <point x="75" y="231" type="line"/>
    </contour>
    <component base="Ustraight"/>
  </outline>
</glyph>
<glyph name="quoteright" format="2">
  <advance width="218"/>
  <unicode hex="2019"/>
  <outline>
    <contour>
      <point x="199" y="614" type="curve" smooth="yes"/>
      <point x="199" y="644"/>
      <point x="191" y="675"/>
      <point x="174" y="702" type="curve"/>
      <point x="158" y="714"/>
      <point x="136" y="731"/>
      <point x="103" y="731" type="curve" smooth="yes"/>
      <point x="60" y="731"/>
      <point x="19" y="695"/>
      <point x="19" y="649" type="curve" smooth="yes"/>
      <point x="19" y="621"/>
      <point x="27" y="596"/>
      <point x="58" y="575" type="curve" smooth="yes"/>
      <point x="129" y="527" type="line"/>
      <point x="138" y="617" type="line"/>
      <point x="127" y="548"/>
      <point x="63" y="483"/>
      <point x="20" y="460" type="curve"/>
      <point x="38" y="418" type="line"/>
      <point x="135" y="453"/>
      <point x="199" y="526"/>
    </contour>
  </outline>
</glyph>
<glyph name="quotedblleft" format="2">
  <advance width="436"/>
  <unicode hex="201C"/>
  <outline>
    <contour>
      <point x="19" y="535" type="curve" smooth="yes"/>
      <point x="19" y="505"/>
      <point x="27" y="474"/>
      <point x="44" y="447" type="curve"/>
      <point x="60" y="435"/>
      <point x="82" y="418"/>
      <point x="115" y="418" type="curve" smooth="yes"/>
      <point x="158" y="418"/>
      <point x="199" y="454"/>
      <point x="199" y="500" type="curve" smooth="yes"/>
      <point x="199" y="528"/>
      <point x="191" y="553"/>
      <point x="160" y="574" type="curve" smooth="yes"/>
      <point x="89" y="622" type="line"/>
      <point x="80" y="532" type="line"/>
      <point x="91" y="601"/>
      <point x="155" y="666"/>
      <point x="198" y="689" type="curve"/>
      <point x="180" y="731" type="line"/>
      <point x="83" y="696"/>
      <point x="19" y="623"/>
    </contour>
    <contour>
      <point x="237" y="535" type="curve" smooth="yes"/>
      <point x="237" y="505"/>
      <point x="245" y="474"/>
      <point x="262" y="447" type="curve"/>
      <point x="278" y="435"/>
      <point x="300" y="418"/>
      <point x="333" y="418" type="curve" smooth="yes"/>
      <point x="376" y="418"/>
      <point x="417" y="454"/>
      <point x="417" y="500" type="curve" smooth="yes"/>
      <point x="417" y="528"/>
      <point x="409" y="553"/>
      <point x="378" y="574" type="curve" smooth="yes"/>
      <point x="307" y="622" type="line"/>
      <point x="298" y="532" type="line"/>
      <point x="309" y="601"/>
      <point x="373" y="666"/>
      <point x="416" y="689" type="curve"/>
      <point x="398" y="731" type="line"/>
      <point x="301" y="696"/>
      <point x="237" y="623"/>
    </contour>
  </outline>
</glyph>
<glyph name="quotedblbase" format="2">
  <advance width="436"/>
  <unicode hex="201E"/>
  <outline>
    <contour>
      <point x="199" y="44" type="curve" smooth="yes"/>
      <point x="199" y="74"/>
      <point x="191" y="105"/>
      <point x="174" y="132" type="curve"/>
      <point x="158" y="144"/>
      <point x="136" y="161"/>
      <point x="103" y="161" type="curve" smooth="yes"/>
      <point x="60" y="161"/>
      <point x="19" y="125"/>
      <point x="19" y="79" type="curve" smooth="yes"/>
      <point x="19" y="51"/>
      <point x="27" y="26"/>
      <point x="58" y="5" type="curve" smooth="yes"/>
      <point x="129" y="-43" type="line"/>
      <point x="138" y="47" type="line"/>
      <point x="127" y="-22"/>
      <point x="63" y="-87"/>
      <point x="20" y="-110" type="curve"/>
      <point x="38" y="-152" type="line"/>
      <point x="135" y="-117"/>
      <point x="199" y="-44"/>
    </contour>
    <contour>
      <point x="417" y="44" type="curve" smooth="yes"/>
      <point x="417" y="74"/>
      <point x="409" y="105"/>
      <point x="392" y="132" type="curve"/>
      <point x="376" y="144"/>
      <point x="354" y="161"/>
      <point x="321" y="161" type="curve" smooth="yes"/>
      <point x="278" y="161"/>
      <point x="237" y="125"/>
      <point x="237" y="79" type="curve" smooth="yes"/>
      <point x="237" y="51"/>
      <point x="245" y="26"/>
      <point x="276" y="5" type="curve" smooth="yes"/>
      <point x="347" y="-43" type="line"/>
      <point x="356" y="47" type="line"/>
      <point x="345" y="-22"/>
      <point x="281" y="-87"/>
      <point x="238" y="-110" type="curve"/>
      <point x="256" y="-152" type="line"/>
      <point x="353" y="-117"/>
      <point x="417" y="-44"/>
    </contour>
  </outline>
</glyph>
<glyph name="ellipsis" format="2">
  <advance width="900"/>
  <unicode hex="2026"/>
  <outline>
    <contour>
      <point x="150" y="-16" type="curve" smooth="yes"/>
      <point x="205" y="-16"/>
      <point x="248" y="27"/>
      <point x="248" y="80" type="curve" smooth="yes"/>
      <point x="248" y="134"/>
      <point x="205" y="179"/>
      <point x="150" y="179" type="curve" smooth="yes"/>
      <point x="95" y="179"/>
      <point x="52" y="134"/>
      <point x="52" y="80" type="curve" smooth="yes"/>
      <point x="52" y="27"/>
      <point x="95" y="-16"/>
    </contour>
    <contour>
      <point x="450" y="-16" type="curve" smooth="yes"/>
      <point x="505" y="-16"/>
      <point x="548" y="27"/>
      <point x="548" y="80" type="curve" smooth="yes"/>
      <point x="548" y="134"/>
      <point x="505" y="179"/>
      <point x="450" y="179" type="curve" smooth="yes"/>
      <point x="395" y="179"/>
      <point x="352" y="134"/>
      <point x="352" y="80" type="curve" smooth="yes"/>
      <point x="352" y="27"/>
      <point x="395" y="-16"/>
    </contour>
    <contour>
      <point x="750" y="-16" type="curve" smooth="yes"/>
      <point x="805" y="-16"/>
      <point x="848" y="27"/>
      <point x="848" y="80" type="curve" smooth="yes"/>
      <point x="848" y="134"/>
      <point x="805" y="179"/>
      <point x="750" y="179" type="curve" smooth="yes"/>
      <point x="695" y="179"/>
      <point x="652" y="134"/>
      <point x="652" y="80" type="curve" smooth="yes"/>
      <point x="652" y="27"/>
      <point x="695" y="-16"/>
    </contour>
  </outline>
</glyph>
<glyph name="uni2027" format="2">
  <advance width="300"/>
  <unicode hex="2027"/>
  <outline>
    <contour>
      <point x="150" y="144" type="curve" smooth="yes"/>
      <point x="205" y="144"/>
      <point x="248" y="187"/>
      <point x="248" y="240" type="curve" smooth="yes"/>
      <point x="248" y="294"/>
      <point x="205" y="339"/>
      <point x="150" y="339" type="curve" smooth="yes"/>
      <point x="95" y="339"/>
      <point x="52" y="294"/>
      <point x="52" y="240" type="curve" smooth="yes"/>
      <point x="52" y="187"/>
      <point x="95" y="144"/>
    </contour>
  </outline>
</glyph>
<glyph name="guilsinglright" format="2">
  <advance width="354"/>
  <unicode hex="203A"/>
  <outline>
    <contour>
      <point x="84" y="483" type="line"/>
      <point x="45" y="444" type="line"/>
      <point x="237" y="208" type="line"/>
      <point x="237" y="297" type="line"/>
      <point x="45" y="61" type="line"/>
      <point x="84" y="22" type="line"/>
      <point x="329" y="217" type="line"/>
      <point x="329" y="288" type="line"/>
    </contour>
  </outline>
</glyph>
<glyph name="bulletoperator" format="2">
  <advance width="300"/>
  <unicode hex="2219"/>
  <outline>
    <contour>
      <point x="150" y="223" type="curve" smooth="yes"/>
      <point x="205" y="223"/>
      <point x="248" y="266"/>
      <point x="248" y="319" type="curve" smooth="yes"/>
      <point x="248" y="373"/>
      <point x="205" y="418"/>
      <point x="150" y="418" type="curve" smooth="yes"/>
      <point x="95" y="418"/>
      <point x="52" y="373"/>
      <point x="52" y="319" type="curve" smooth="yes"/>
      <point x="52" y="266"/>
      <point x="95" y="223"/>
    </contour>
  </outline>
</glyph>
<glyph name="approxequal" format="2">
  <advance width="550"/>
  <unicode hex="2248"/>
  <outline>
    <contour>
      <point x="298" y="262" type="curve" smooth="yes"/>
      <point x="255" y="305"/>
      <point x="213" y="320"/>
      <point x="175" y="320" type="curve" smooth="yes"/>
      <point x="98" y="320"/>
      <point x="36" y="271"/>
      <point x="36" y="127" type="curve"/>
      <point x="123" y="119" type="line"/>
      <point x="127" y="193"/>
      <point x="145" y="216"/>
      <point x="172" y="216" type="curve" smooth="yes"/>
      <point x="193" y="216"/>
      <point x="209" y="208"/>
      <point x="249" y="168" type="curve" smooth="yes"/>
      <point x="293" y="124"/>
      <point x="331" y="110"/>
      <point x="374" y="110" type="curve" smooth="yes"/>
      <point x="447" y="110"/>
      <point x="514" y="156"/>
      <point x="514" y="303" type="curve"/>
      <point x="427" y="311" type="line"/>
      <point x="423" y="237"/>
      <point x="405" y="214"/>
      <point x="379" y="214" type="curve" smooth="yes"/>
      <point x="361" y="214"/>
      <point x="339" y="221"/>
    </contour>
    <contour>
      <point x="298" y="502" type="curve" smooth="yes"/>
      <point x="255" y="545"/>
      <point x="213" y="560"/>
      <point x="175" y="560" type="curve" smooth="yes"/>
      <point x="98" y="560"/>
      <point x="36" y="511"/>
      <point x="36" y="367" type="curve"/>
      <point x="123" y="359" type="line"/>
      <point x="127" y="433"/>
      <point x="145" y="456"/>
      <point x="172" y="456" type="curve" smooth="yes"/>
      <point x="193" y="456"/>
      <point x="209" y="448"/>
      <point x="249" y="408" type="curve" smooth="yes"/>
      <point x="293" y="364"/>
      <point x="331" y="350"/>
      <point x="374" y="350" type="curve" smooth="yes"/>
      <point x="447" y="350"/>
      <point x="514" y="396"/>
      <point x="514" y="543" type="curve"/>
      <point x="427" y="551" type="line"/>
      <point x="423" y="477"/>
      <point x="405" y="454"/>
      <point x="379" y="454" type="curve" smooth="yes"/>
      <point x="361" y="454"/>
      <point x="339" y="461"/>
    </contour>
  </outline>
</glyph>
<glyph name="notequal" format="2">
  <advance width="550"/>
  <unicode hex="2260"/>
  <outline>
    <contour>
      <point x="143" y="20" type="line"/>
      <point x="463" y="587" type="line"/>
      <point x="407" y="620" type="line"/>
      <point x="87" y="53" type="line"/>
    </contour>
    <contour>
      <point x="520" y="163" type="line"/>
      <point x="520" y="263" type="line"/>
      <point x="30" y="263" type="line"/>
      <point x="30" y="163" type="line"/>
    </contour>
    <contour>
      <point x="520" y="377" type="line"/>
      <point x="520" y="477" type="line"/>
      <point x="30" y="477" type="line"/>
      <point x="30" y="377" type="line"/>
    </contour>
  </outline>
</glyph>
